<svg width="264" height="106" viewBox="0 0 264 106" fill="none" xmlns="http://www.w3.org/2000/svg">
<g clip-path="url(#clip0_23_785)">
<path d="M98.08 49.3123C100.347 46.3182 102.075 42.9449 104.691 40.7792C108.686 37.5157 113.17 34.9807 117.544 32.326C118.065 32.1078 118.506 31.7332 118.804 31.254C119.103 30.7749 119.246 30.2148 119.212 29.6513C119.214 26.4055 120.388 23.2693 122.518 20.8188C130.177 11.9364 139.994 6.84645 150.59 3.19368C159.139 0.269475 167.887 -0.948113 176.846 0.828368C190.547 3.52303 200.095 13.4334 202.951 27.9446C203.32 29.781 203.111 32.2062 204.159 33.314C205.208 34.4218 207.475 34.0625 209.213 34.3819C213.777 35.2806 218.022 37.3708 221.516 40.4399C225.93 44.1426 227.618 48.8532 226.34 54.3623C232.202 56.1787 237.935 57.9053 243.627 59.7616C245.56 60.3216 247.405 61.1479 249.11 62.2168C251.936 64.1429 251.766 66.8975 248.66 68.2049C244.606 69.8416 240.381 71.0093 236.227 72.3766C236 72.4342 235.788 72.5397 235.605 72.6861C235.423 72.8324 235.274 73.0162 235.168 73.2249C237.915 73.724 240.651 74.3228 243.407 74.702C248.863 75.3459 254.115 77.1568 258.807 80.0115C260.704 81.2091 262.232 83.0056 264 84.6623C263.382 85.2551 262.714 85.7927 262.003 86.2691C260.824 86.8679 259.586 87.8061 258.377 87.7761C253.366 87.8321 248.373 88.4006 243.477 89.4728C239.512 90.0663 235.496 90.2503 231.493 90.0217C228.369 89.8632 225.279 90.7403 222.705 92.5167C216.623 96.7583 210.621 101.229 203.281 102.866C187.302 106.419 171.263 107.647 155.744 100.92C147.065 97.1675 138.766 98.2254 130.137 100.631C123.232 102.568 116.233 104.15 109.165 105.371C100.876 106.788 92.5873 105.521 84.3382 104.373C78.3462 103.505 72.3541 102.168 66.3021 101.679C61.3677 101.411 56.42 101.518 51.5018 101.998C43.1174 102.684 34.6791 101.773 26.6347 99.3133C21.4816 97.6965 16.2785 98.3152 11.0654 98.4949C9.29488 98.7099 7.50044 98.6154 5.7624 98.2154C4.00731 97.5801 2.44099 96.5126 1.20843 95.1116C-0.788917 92.7762 -0.149764 90.0217 2.70645 89.0037C5.16649 88.2561 7.69065 87.7382 10.2465 87.4567C17.7465 86.2791 25.2266 85.0216 32.2972 81.9876C33.8751 81.3089 35.5529 80.8997 37.2906 80.3309C37.6002 70.4504 43.1329 63.8735 50.4531 58.4841C59.987 51.4689 71.5003 47.6534 83.3395 47.5857C88.3429 47.4859 93.3862 47.2065 98.08 49.3123ZM202.152 75.4805C203.56 71.7678 204.968 68.6241 205.947 65.3406C206.698 63.1251 206.722 60.7277 206.014 58.498C205.306 56.2682 203.904 54.3228 202.012 52.9451C198.955 50.6133 195.365 49.0801 191.566 48.484C187.731 47.7654 183.896 47.4261 180.111 48.8931C179.439 49.0752 178.855 49.4932 178.466 50.0706C178.077 50.648 177.91 51.3461 177.994 52.0369C177.881 54.359 177.563 56.6667 177.045 58.9333C176.782 59.6124 176.407 60.2431 175.937 60.7996L175.348 60.6099C175.278 59.6718 175.238 58.7337 175.158 57.7955C174.798 53.6138 174.648 49.3922 172.302 45.6995C167.488 38.1544 160.957 33.0146 152.488 31.3279C138.556 28.5435 125.364 31.6174 113.15 38.7433C109.798 40.6056 106.924 43.2199 104.754 46.3804C102.585 49.5409 101.179 53.1615 100.647 56.9572C100.427 58.3544 99.9975 59.7117 99.6479 61.079H98.849C98.3896 59.4822 97.8503 57.9053 97.5008 56.2785C96.8716 52.8952 96.1625 52.0768 92.817 52.0768C88.0911 51.9983 83.3643 52.1649 78.6558 52.5759C67.987 53.6077 57.9256 58.0128 49.9338 65.1509C47.796 66.9687 45.9943 69.1475 44.6109 71.5882C41.7846 76.8478 40.1168 82.3768 43.3625 88.2252C43.6274 88.9226 43.8215 89.6448 43.9418 90.381C40.0669 89.6225 38.7686 86.798 37.6102 83.6543L33.9151 85.0515C31.5582 85.9497 29.2712 87.1973 26.8444 87.6663C20.9123 88.824 14.9802 89.6025 8.98812 90.5806C7.31035 90.8201 5.64256 91.3191 3.61524 91.8181C5.37291 93.8141 7.15056 93.7243 8.94817 93.8141C13.3024 93.9838 17.7964 93.6345 21.931 94.6625C33.1045 97.3247 44.6414 98.1239 56.0757 97.0278C59.5721 96.6735 63.0954 96.6735 66.5918 97.0278C72.5838 97.7264 78.5759 98.934 84.6278 99.8023C92.3676 100.92 100.157 102.237 107.947 100.89C115.089 99.7012 122.155 98.095 129.109 96.0797C138.916 93.1654 148.313 92.7662 158.07 96.7683C172.901 102.826 188.151 101.519 203.32 97.7663C209.692 96.1994 214.825 92.0976 220.118 88.4049C223.773 85.8499 227.638 84.5226 231.893 85.2012C240.561 86.5785 248.87 83.0455 257.499 83.5445C253.278 81.0147 248.566 79.4123 243.677 78.8438C235.747 78.0953 228.637 75.5903 222.705 69.6919C220.714 67.8862 218.448 66.4074 215.994 65.3106C214.196 64.4224 212.099 64.1928 210.082 63.6639C209.685 66.0866 208.772 68.3957 207.404 70.4346C206.035 72.4734 204.244 74.1943 202.152 75.4805ZM199.156 39.2323C199.424 37.1076 199.534 34.966 199.486 32.825C197.878 15.8586 186.253 4.78054 170.015 4.50109C159.519 4.32145 149.712 7.24565 140.554 12.3056C135.604 15.1941 130.892 18.4713 126.462 22.1062C124.175 23.8927 123.027 26.767 122.747 29.9307C126.003 29.5115 125.743 29.3219 127.241 26.8568C128.995 24.2499 130.963 21.793 133.124 19.5114C133.786 18.9547 134.58 18.5768 135.43 18.4135C135.72 18.3237 136.219 18.6131 136.429 18.8826C136.639 19.1521 136.349 19.6311 136.13 19.8806C135.44 20.5293 134.572 20.9984 133.952 21.707C132.225 23.7031 130.577 25.759 128.899 27.785L129.548 28.4237C133.074 27.4955 133.373 21.9366 137.927 22.216L134.022 27.4257C152.378 24.0723 166.979 29.302 177.195 45.4699C181.128 44.2175 185.275 43.7804 189.382 44.1854C193.49 44.5904 197.472 45.8289 201.083 47.8253C206.077 50.5798 209.362 54.6517 210.161 60.5301C211.659 60.6898 212.958 60.7297 214.156 60.9892C218.88 61.9872 222.795 64.622 226.29 67.9055C227.096 68.7497 228.131 69.3401 229.269 69.6043C230.406 69.8685 231.596 69.7949 232.692 69.3925C236.077 68.4544 239.493 67.636 242.878 66.6779C244.103 66.2672 245.306 65.7942 246.483 65.2607L246.403 64.6619L234.949 60.8794C230.864 59.5121 226.799 57.9851 221.966 60.091C222.051 58.1187 222.248 56.1528 222.555 54.2026C223.634 49.3223 222.106 45.6695 218.251 42.885C212.388 38.6235 206.177 36.5177 199.116 39.2323H199.156Z" fill="white"/>
<path d="M148.164 35.2801C149.77 35.1002 151.391 35.1002 152.997 35.2801C158.873 36.6163 164.024 40.1247 167.418 45.1007C167.907 45.7575 168.294 46.4842 168.566 47.2564C168.672 47.8627 168.693 48.4808 168.626 49.0927C168.096 48.877 167.603 48.5771 167.168 48.2045C166.29 47.2065 165.6 46.0488 164.712 45.0807C161.296 41.3581 157.002 39.1924 152.408 37.5955L148.154 36.1284C148.154 35.9288 148.154 35.5795 148.164 35.2801Z" fill="white"/>
<path d="M49.4046 90.3909C47.6569 90.9199 46.9678 89.832 46.4085 88.7043C43.3526 83.0055 45.0304 73.3746 49.814 69.2628C50.4217 68.8472 51.071 68.496 51.7514 68.2148L52.1709 68.6041C52.0807 69.1965 51.8845 69.7678 51.5917 70.2907C46.5983 76.0693 46.3286 82.4766 49.1049 89.353C49.1749 89.6224 49.2548 89.9119 49.4046 90.3909Z" fill="white"/>
<path d="M84.8874 96.4589L73.4226 94.4628C70.886 94.0137 68.3494 93.6145 65.8427 93.0357C65.3034 92.9059 64.844 92.1275 64.4246 91.6484C64.9638 91.2692 65.5031 90.5506 66.0524 90.5506C72.354 90.5506 78.406 91.6784 83.8688 95.2413C84.2459 95.6143 84.5869 96.0219 84.8874 96.4589Z" fill="white"/>
<path d="M112.111 44.2024C110.194 47.436 107.857 50.49 106.459 53.9531C105.061 57.4162 104.621 61.2586 103.722 65.101C103.268 64.4088 102.931 63.6469 102.724 62.8455C102.105 55.54 105.091 49.7115 109.794 44.6914C110.438 44.2273 111.163 43.8887 111.932 43.6934C112.021 43.913 112.061 44.0328 112.111 44.2024Z" fill="white"/>
<path d="M114.848 96.2893L135.221 89.9618C132.474 94.2333 119.601 98.2753 114.848 96.2893Z" fill="white"/>
<path d="M207.235 91.3091C212.399 86.7781 217.522 83.0155 220.478 77.0474C221.287 82.7361 212.618 91.4888 207.235 91.3091Z" fill="white"/>
<path d="M70.167 88.1354C73.902 85.7002 83.3994 88.1354 84.2583 92.2373L70.167 88.1354Z" fill="white"/>
<path d="M53.0497 87.1972C50.7427 87.1972 49.1948 85.0715 48.9152 81.9776C48.5856 78.4645 49.6642 76.1591 52.2907 75.6102C51.1322 79.6123 50.9325 83.4846 53.0497 87.1972Z" fill="white"/>
<path d="M215.954 76.718C217.452 80.4406 213.367 84.9517 209.143 84.4128C210.801 81.1492 213.717 79.5125 215.954 76.718Z" fill="white"/>
<path d="M164.712 50.47L154.965 42.0068C157.331 41.4679 159.339 42.5757 161.136 44.0727C162.934 45.5697 164.592 47.446 164.712 50.47Z" fill="white"/>
<path d="M108.736 61.8774C106.119 58.8235 107.737 52.2764 111.512 50.7395L108.736 61.8774Z" fill="white"/>
<path d="M167.778 75.6601L174.119 65.6799C175.218 69.1829 171.852 74.5523 167.778 75.6601Z" fill="white"/>
<path d="M201.882 59.552C203.48 63.7038 201.752 70.1011 198.367 71.9674L201.882 59.552Z" fill="white"/>
<path d="M128.829 88.4048C127.521 91.5486 122.837 92.9159 119.981 91.0296L128.829 88.4048Z" fill="white"/>
<path d="M175.457 69.0133C175.758 69.7348 175.874 70.5198 175.795 71.2974C175.715 72.0749 175.443 72.8204 175.003 73.4664C174.563 74.1125 173.968 74.6386 173.273 74.9972C172.579 75.3558 171.805 75.5357 171.023 75.5204L175.457 69.0133Z" fill="white"/>
<path d="M54.2881 77.726C54.4179 78.1001 54.5181 78.4839 54.5877 78.8737C54.7475 80.6402 54.8973 82.4167 55.0371 84.1932L54.4479 84.5625C53.7912 83.7911 53.2772 82.9091 52.9299 81.9576C52.7102 80.5504 52.3207 78.8438 54.2881 77.726Z" fill="white"/>
<path d="M196.17 68.5442C196.699 66.8875 197.169 65.5501 197.518 64.2727C197.868 62.9952 198.087 61.6978 198.397 60.2806C199.082 61.6955 199.234 63.3096 198.825 64.8272C198.416 66.3449 197.473 67.6644 196.17 68.5442Z" fill="white"/>
<path d="M170.065 65.5601C170.184 69.0133 168.626 71.0093 165.64 71.3586L170.065 65.5601Z" fill="white"/>
<path d="M228.477 80.3408C227.578 81.2191 226.889 81.9177 226.14 82.5565C226.14 82.5565 225.281 81.758 225.341 81.6383C225.86 80.6403 226.5 79.7221 227.109 78.7839L228.477 80.3408Z" fill="white"/>
<path d="M195.581 61.3484C196.979 63.6539 196.48 65.6499 194.093 67.2468L195.581 61.3484Z" fill="white"/>
<path d="M223.504 77.8458C223.604 78.1053 223.873 78.4147 223.803 78.6043C223.424 79.6023 222.974 80.6702 222.545 81.7081C222.235 81.4487 221.616 81.1093 221.656 80.9596C221.966 79.8319 222.405 78.734 222.805 77.6262L223.504 77.8458Z" fill="white"/>
<path d="M194.252 36.2382C194.392 26.4676 190.028 19.0922 182.907 13.1939L183.477 12.5451C184.514 12.7787 185.508 13.1727 186.423 13.7128C192.734 18.7628 196.11 25.3797 195.671 33.8829C195.536 34.7002 195.312 35.5001 195.001 36.2681L194.252 36.2382Z" fill="white"/>
<path d="M189.059 29.7111L182.368 18.0243C185.734 18.7728 187.052 21.1681 188.26 23.5234C189.259 25.3697 190.258 27.3358 189.698 29.5115L189.059 29.7111Z" fill="white"/>
<path d="M211.649 44.1725C213.277 42.3661 214.426 43.1745 215.454 44.0727C218.201 46.418 219.379 50.989 217.831 53.9232C216.074 50.4301 216.123 45.909 211.649 44.1725Z" fill="white"/>
<path d="M181.09 22.6551C183.457 23.3537 184.585 24.9107 184.745 27.4756C183.117 27.266 181.679 25.4396 181.09 22.6551Z" fill="white"/>
</g>
<defs>
<clipPath id="clip0_23_785">
<rect width="264" height="106" fill="white"/>
</clipPath>
</defs>
</svg>
