<svg width="167" height="78" viewBox="0 0 167 78" fill="none" xmlns="http://www.w3.org/2000/svg">
<g clip-path="url(#clip0_23_812)">
<path d="M106.565 15.2589C111.109 10.3043 116.505 9.20024 122.375 10.2235C131.078 11.7404 135.9 21.8921 132.377 31.191L131.634 33.1388C134.618 33.1388 137.486 33.2106 140.363 33.1388C147.073 32.8334 153.735 34.4127 159.597 37.6985C162.528 39.3501 165.163 41.4953 166.417 45.1844C167.842 49.3671 166.417 52.9036 164.177 56.0541C160.269 61.4396 154.856 63.4771 149.093 64.4465C147.061 64.6905 145.011 64.7326 142.971 64.5722C142.303 64.5005 141.627 64.582 140.995 64.8106C140.363 65.0392 139.792 65.4089 139.323 65.8916C135.998 69.1498 131.84 70.3795 127.672 71.3758C120.09 73.1171 112.436 74.5892 104.791 72.076C102.469 71.313 100.309 70.0025 98.0149 69.0062C97.5488 68.8088 96.8228 68.6382 96.4912 68.8985C89.6169 74.3917 81.7567 76.3574 73.6635 77.5063C65.4503 78.5699 57.1039 77.8005 49.2225 75.2534C44.8846 73.925 41.0038 71.7439 39.3637 66.4032C29.0477 71.1784 18.8124 71.0976 8.62196 66.6725C4.31991 64.8235 1.00375 61.7089 0.134383 56.09C-0.107727 54.8004 -0.0595794 53.473 0.275319 52.2044C0.610216 50.9358 1.22343 49.758 2.0703 48.7567C3.52415 47.0217 5.31074 45.5962 7.32435 44.5648C9.33795 43.5334 11.5377 42.9169 13.7934 42.7519C16.6079 42.5894 19.4288 42.5715 22.2451 42.6981C22.4064 41.8005 22.5498 40.4002 22.8904 39.1077C25.5792 28.6958 31.6827 22.3947 40.7618 20.1059C48.398 18.1491 56.061 18.203 63.4193 22.4396C63.5358 20.7611 63.5268 19.1455 63.7867 17.5926C64.5214 13.7002 66.4184 10.1227 69.227 7.33327C77.0782 -1.03221 91.8486 -3.47364 101.277 6.60622C102.411 7.84958 103.414 9.20604 104.271 10.6543C105.113 12.0276 105.759 13.5715 106.565 15.2589ZM26.574 52.3471C24.6416 51.2157 23.2363 49.3628 22.6663 47.1949C22.4961 46.6654 22.0838 45.9204 21.6984 45.8575C15.4246 44.7356 9.52718 45.7857 4.5619 50.7943C3.87164 51.5003 3.38862 52.3828 3.16573 53.3454C2.94283 54.3079 2.98866 55.3134 3.29818 56.2516C3.58587 57.6563 4.21944 58.9669 5.14134 60.0641C6.06325 61.1614 7.24428 62.0106 8.57715 62.5346C12.4313 64.0137 16.4295 65.0846 20.5064 65.73C26.7174 66.6276 32.7403 64.7786 38.7183 62.9206C40.1255 56.2516 43.9884 51.0546 47.3314 51.3687C45.8884 53.7383 44.2752 55.9554 43.0204 58.4327C40.7708 62.9206 42.0076 67.4534 46.0049 69.8589C47.2414 70.6102 48.562 71.2128 49.9395 71.6541C59.0977 74.5004 68.8459 74.8628 78.1896 72.7043C87.7454 70.7429 96.3316 65.5367 102.496 57.966C102.772 57.7327 103.072 57.531 103.392 57.3646C103.222 61.0536 101.259 63.3784 99.422 66.0532C100.641 66.6186 101.681 67.1572 102.747 67.5701C110.536 70.5949 118.378 69.5268 126.175 67.7765C132.7 66.3045 138.822 63.7554 143.061 57.2838C143.106 57.212 143.276 57.2838 143.626 57.2838C143.204 58.6571 142.819 59.9765 142.38 61.3947C148.098 61.0985 153.646 60.4163 158.512 56.7811C160.032 55.5869 161.33 54.1347 162.348 52.4907C164.41 49.2504 164.141 46.1448 161.362 43.7033C159.531 42.0565 157.446 40.7168 155.187 39.736C145.597 35.7059 135.747 36.4868 125.889 38.0037C125.109 38.1294 124.329 38.1563 123.549 38.2191C124.685 36.4953 125.969 34.8736 127.385 33.3722C132.028 27.8879 131.105 19.3429 125.44 15.7167C120.403 12.5033 110.41 12.8983 106.153 21.2548C105.815 21.8024 105.438 22.3244 105.024 22.8166C104.764 21.551 104.602 20.7073 104.414 19.8635C103.294 14.855 101.197 10.5646 97.6653 7.29736C91.1406 1.18482 78.8439 2.80945 72.4356 8.85916C68.0081 13.0239 65.4717 18.1043 67.0043 25.0157C67.2462 26.4659 67.4108 27.9281 67.4972 29.3959C65.7047 28.3906 64.5127 26.8557 63.0159 26.003C54.6897 21.2368 46.1125 21.5151 37.5891 25.1054C31.5035 27.6815 27.8557 33.076 25.9377 40.113C24.8891 44.0534 25.3551 47.9669 26.574 52.3471Z" fill="white"/>
<path d="M83.2267 54.3487C83.7276 53.8333 84.2768 53.3674 84.8668 52.9574C89.859 50.3634 92.7808 45.5883 95.1559 40.1938C95.5518 39.5365 96.0308 38.9331 96.581 38.3986C96.8158 39.2358 96.9068 40.1069 96.8498 40.9747C95.6826 45.9003 92.8717 50.2795 88.8821 53.3883C88.1177 54.0519 87.186 54.4924 86.1887 54.6618C85.1914 54.8311 84.1667 54.7228 83.2267 54.3487Z" fill="white"/>
<path d="M31.9516 33.3901C31.1629 36.5855 29.7827 39.754 29.7827 42.9224C29.7827 46.0909 31.1719 49.2055 32.0412 52.7151C31.3815 52.4084 30.776 51.9961 30.2487 51.4944C26.8878 46.9885 27.4255 37.6985 31.2615 33.7581C31.4652 33.5913 31.6997 33.4663 31.9516 33.3901Z" fill="white"/>
<path d="M54.0892 61.3229C51.6962 61.1164 50.1278 58.1813 50.5042 55.354C51.2481 50.1659 52.9868 47.5001 55.5501 48.1733C52.4401 52.0598 51.033 56.2874 54.0892 61.3229Z" fill="white"/>
<path d="M139.467 55.8117C137.925 59.8239 130.271 65.1825 125.835 65.38L139.467 55.8117Z" fill="white"/>
<path d="M33.9861 37.7972C32.3908 42.2852 34.5239 45.8755 36.1282 49.6633C33.6455 49.2684 32.4266 47.5719 31.8441 43.9816C31.369 40.9567 31.9068 38.9013 33.9861 37.7972Z" fill="white"/>
<path d="M159.355 48.1913C159.857 51.4136 154.874 56.5747 151.091 56.4311L159.355 48.1913Z" fill="white"/>
<path d="M98.9381 45.5254C98.3555 49.2863 94.887 53.1908 92.3685 53.2087L98.9381 45.5254Z" fill="white"/>
<path d="M150.285 53.6665L154.918 48.281C155.259 50.6776 152.301 53.9358 150.285 53.6665Z" fill="white"/>
<path d="M122.787 34.1082C124.069 31.2898 125.198 28.7855 126.373 26.2633C128.093 28.0585 126.041 32.7977 122.787 34.1082Z" fill="white"/>
<path d="M57.0379 58.9712C56.4105 58.1275 55.4784 57.3915 55.2454 56.4221C54.9375 55.4644 54.873 54.445 55.0576 53.456C55.2423 52.4671 55.6703 51.5399 56.303 50.7583C56.7152 53.4511 57.0827 55.9374 57.4502 58.3878C57.2978 58.5763 57.1634 58.7737 57.0379 58.9712Z" fill="white"/>
<path d="M132.987 56.2605C132.091 59.5367 129.285 61.1075 126.767 60.2548L132.987 56.2605Z" fill="white"/>
<path d="M101.985 47.7245C101.51 50.3185 99.9598 52.0419 97.3248 52.0957L101.448 47.1501L101.985 47.7245Z" fill="white"/>
<path d="M21.0083 52.3561C20.4705 51.9791 19.7266 51.7367 19.4309 51.1802C19.0844 50.3463 18.8785 49.4607 18.8214 48.5593C18.8214 48.4336 19.4757 48.0207 19.5205 48.0746C20.0406 48.6644 20.4917 49.3119 20.8649 50.0044C21.0962 50.607 21.2615 51.233 21.3578 51.8714L21.0083 52.3561Z" fill="white"/>
<path d="M59.5564 54.223C58.0596 51.6559 58.2927 50.3095 60.4527 48.7208C60.1659 50.6686 59.897 52.2034 59.5564 54.223Z" fill="white"/>
<path d="M36.8452 41.2081L38.2972 46.046L37.7236 46.2884C36.1372 45.1664 35.9848 43.3982 36.2179 41.4504L36.8452 41.2081Z" fill="white"/>
<path d="M151.817 49.1068L149.012 51.261L148.465 50.3634C149.362 49.5825 150.258 48.8016 151.154 48.0117L151.817 49.1068Z" fill="white"/>
<path d="M16.1326 51.8265C15.7472 51.0007 15.3439 50.1839 15.0392 49.3222C15.3285 49.0602 15.6438 48.8287 15.9803 48.6311L17.1364 51.1623L16.1326 51.8265Z" fill="white"/>
</g>
<defs>
<clipPath id="clip0_23_812">
<rect width="167" height="78" fill="white"/>
</clipPath>
</defs>
</svg>
