<svg width="94" height="76" viewBox="0 0 94 76" fill="none" xmlns="http://www.w3.org/2000/svg">
<g clip-path="url(#clip0_23_861)">
<path d="M58.9872 14.8676C54.552 10.04 49.2858 8.9643 43.5559 9.96131C35.0617 11.4393 30.3553 21.3307 33.7932 30.3912L34.5193 32.289C31.6062 32.289 28.8069 32.359 25.9988 32.289C19.4492 31.9915 12.9468 33.5303 7.22577 36.7318C4.36519 38.3411 1.79332 40.4313 0.568604 44.0257C-0.822311 48.1012 0.568604 51.547 2.75558 54.6168C6.56969 59.8642 11.8534 61.8495 17.4783 62.794C19.461 63.0317 21.4624 63.0728 23.4532 62.9164C24.1053 62.8466 24.7648 62.926 25.3817 63.1487C25.9985 63.3715 26.5566 63.7317 27.0136 64.202C30.259 67.3767 34.3181 68.5749 38.3859 69.5457C45.7866 71.2423 53.2573 72.6766 60.7193 70.2278C62.985 69.4844 65.0933 68.2076 67.3327 67.2368C67.7876 67.0444 68.4962 66.8782 68.8199 67.1318C75.5295 72.4842 83.2014 74.3995 91.1008 75.519C99.1173 76.5552 107.264 75.8056 114.956 73.3238C119.19 72.0294 122.978 69.9042 124.579 64.7005C134.648 69.3532 144.638 69.2745 154.584 64.9629C158.783 63.1613 162.02 60.1266 162.869 54.6518C163.105 53.3952 163.058 52.1018 162.731 50.8658C162.404 49.6297 161.806 48.4821 160.979 47.5065C159.56 45.8159 157.816 44.4271 155.851 43.4221C153.886 42.4171 151.739 41.8165 149.537 41.6557C146.79 41.4974 144.036 41.4798 141.288 41.6032C141.13 40.7286 140.99 39.3643 140.658 38.1049C138.033 27.9599 132.076 21.8205 123.214 19.5903C115.761 17.6837 108.282 17.7362 101.1 21.8642C100.986 20.2287 100.995 18.6545 100.741 17.1415C100.024 13.3489 98.1724 9.86312 95.431 7.1452C87.7679 -1.00578 73.3513 -3.38461 64.1485 6.4368C63.0423 7.64828 62.0632 8.96996 61.2267 10.3811C60.4044 11.7192 59.7745 13.2234 58.9872 14.8676ZM137.062 51.0048C138.949 49.9024 140.32 48.097 140.876 45.9848C141.043 45.4688 141.445 44.7429 141.821 44.6817C147.945 43.5885 153.701 44.6117 158.547 49.4918C159.221 50.1797 159.692 51.0397 159.91 51.9775C160.128 52.9154 160.083 53.895 159.781 54.8092C159.5 56.1779 158.882 57.4549 157.982 58.524C157.082 59.5931 155.929 60.4206 154.628 60.9312C150.866 62.3722 146.964 63.4158 142.985 64.0446C136.922 64.9192 131.044 63.1176 125.209 61.3072C123.836 54.8092 120.065 49.7454 116.802 50.0515C118.211 52.3604 119.785 54.5206 121.01 56.9344C123.206 61.3072 121.998 65.7238 118.097 68.0676C116.89 68.7997 115.601 69.3868 114.257 69.8168C105.318 72.5901 95.803 72.9432 86.6831 70.84C77.3562 68.929 68.9757 63.8562 62.9588 56.4796C62.6899 56.2524 62.3965 56.0558 62.084 55.8936C62.2502 59.4881 64.166 61.7532 65.9593 64.3595C64.7696 64.9104 63.7548 65.4352 62.7138 65.8375C55.1119 68.7848 47.4575 67.744 39.8468 66.0386C33.4783 64.6043 27.5034 62.1206 23.3657 55.8149C23.3219 55.745 23.1557 55.8149 22.8146 55.8149C23.2257 57.153 23.6019 58.4386 24.0305 59.8205C18.4494 59.5318 13.0344 58.8672 8.28427 55.3252C6.80109 54.1615 5.53381 52.7466 4.54016 51.1447C2.52814 47.9875 2.79057 44.9615 5.50244 42.5827C7.29021 40.9781 9.32553 39.6727 11.5298 38.7171C20.89 34.7903 30.504 35.5512 40.1267 37.0292C40.8878 37.1516 41.6488 37.1779 42.4099 37.2391C41.3009 35.5595 40.0482 33.9793 38.6658 32.5164C34.1344 27.1728 35.0354 18.8469 40.5641 15.3137C45.4804 12.1827 55.2343 12.5675 59.3896 20.7098C59.7192 21.2433 60.0876 21.7519 60.4919 22.2315C60.7455 20.9984 60.903 20.1763 61.0867 19.3542C62.1802 14.4741 64.2272 10.2936 67.6739 7.11022C74.0424 1.1544 86.0445 2.73737 92.2993 8.63196C96.6208 12.69 99.0964 17.64 97.6005 24.3742C97.3644 25.7873 97.2038 27.2119 97.1194 28.6421C98.869 27.6626 100.032 26.1671 101.493 25.3362C109.62 20.6923 117.992 20.9634 126.311 24.4617C132.251 26.9717 135.811 32.2278 137.684 39.0844C138.707 42.9238 138.252 46.7369 137.062 51.0048Z" fill="white"/>
<path d="M81.7668 52.9551C81.278 52.453 80.7419 51.999 80.166 51.5995C75.2934 49.072 72.4416 44.4193 70.1234 39.1632C69.7369 38.5227 69.2694 37.9348 68.7324 37.414C68.5032 38.2298 68.4144 39.0785 68.47 39.924C69.6093 44.7234 72.3528 48.9903 76.2469 52.0193C76.9929 52.6659 77.9023 53.0951 78.8758 53.2602C79.8492 53.4252 80.8493 53.3197 81.7668 52.9551Z" fill="white"/>
<path d="M26.8736 54.3807C28.3782 58.29 35.849 63.5112 40.1792 63.7036L26.8736 54.3807Z" fill="white"/>
<path d="M7.462 46.9556C6.97212 50.0953 11.836 55.124 15.5276 54.9841L7.462 46.9556Z" fill="white"/>
<path d="M66.4318 44.3581C67.0004 48.0226 70.3858 51.8269 72.844 51.8444L66.4318 44.3581Z" fill="white"/>
<path d="M16.3149 52.2904L11.7923 47.043C11.4598 49.3781 14.3467 52.5528 16.3149 52.2904Z" fill="white"/>
<path d="M43.1536 33.2336C41.9026 30.4875 40.8004 28.0474 39.6544 25.5899C37.9748 27.339 39.9781 31.9567 43.1536 33.2336Z" fill="white"/>
<path d="M33.1985 54.818C34.0733 58.0101 36.8114 59.5406 39.2695 58.7098L33.1985 54.818Z" fill="white"/>
<path d="M63.4574 46.5008C63.9211 49.0283 65.4345 50.7075 68.0063 50.7599L63.9823 45.9411L63.4574 46.5008Z" fill="white"/>
<path d="M14.8191 47.8476L17.5572 49.9466L18.0908 49.072C17.216 48.3112 16.3412 47.5503 15.4664 46.7807L14.8191 47.8476Z" fill="white"/>
</g>
<defs>
<clipPath id="clip0_23_861">
<rect width="163" height="76" fill="white" transform="matrix(-1 0 0 1 163 0)"/>
</clipPath>
</defs>
</svg>
