<svg width="141" height="65" viewBox="0 0 141 65" fill="none" xmlns="http://www.w3.org/2000/svg">
<g clip-path="url(#clip0_23_880)">
<path d="M88.7607 16.1C86.1974 10.1225 81.4362 5.35783 75.4607 2.78998C67.6507 -0.690015 59.5307 -0.580015 51.4607 1.28999C40.7407 3.73999 31.8907 9.53998 24.2207 17.41C20.3107 21.41 20.2207 21.52 15.5707 18.46C6.3707 12.46 -3.2593 11.07 -13.5593 15.09C-20.3293 17.73 -25.1293 22.61 -28.5593 28.91C-29.8693 31.31 -31.2993 32.02 -34.0893 32.11C-39.0206 32.2518 -43.915 33.0077 -48.6593 34.36C-56.659 36.6367 -64.9888 37.5295 -73.2893 37C-79.0393 36.73 -84.8393 37.72 -90.6293 38.13C-92.5493 38.27 -94.4793 38.34 -96.3993 38.44C-98.9293 38.58 -99.7593 39.93 -98.2393 41.96C-97.3434 43.2406 -96.0386 44.1786 -94.5393 44.62C-89.0593 45.68 -83.5393 46.36 -77.9893 47.24C-76.791 47.3255 -75.6296 47.6921 -74.5993 48.31C-65.7193 55.31 -55.5993 56.31 -44.9593 54.94C-41.0493 54.43 -37.1693 53.7 -33.2593 53.17C-27.4068 52.3478 -21.4419 52.9762 -15.8893 55C-9.7793 57.19 -3.7793 59.5 2.4707 61.16C9.8407 63.16 17.4707 62.74 24.9507 61.93C33.4107 61 41.7807 59.28 50.2207 58C50.9044 57.8916 51.6049 58.0037 52.2207 58.32C66.0207 66.65 80.4807 66.25 95.2807 61.89C98.8607 60.83 102.521 60.05 106.021 58.77C108.816 57.8724 111.444 56.5211 113.801 54.77C116.601 52.48 119.341 52.35 122.631 52.77C126.523 53.3067 130.452 53.5341 134.381 53.45C137.661 53.34 140.221 51.42 140.221 49.48C140.221 46.48 137.811 45.54 135.691 44.55C133.979 43.8126 132.214 43.2042 130.411 42.73C129.149 42.39 127.984 41.7612 127.006 40.8935C126.029 40.0258 125.267 38.9427 124.781 37.73C124.041 35.98 123.301 34.24 122.681 32.44C118.951 21.65 111.161 16.31 100.391 14.74C96.4615 14.1951 92.4582 14.6632 88.7607 16.1V16.1ZM22.0707 25C24.3107 22.77 26.5707 20.42 28.9307 18.2C37.9307 9.67999 48.3307 4.24999 60.9307 3.97998C70.2207 3.76999 78.1407 6.60998 83.8507 14.49C85.6207 16.93 86.6407 19.59 85.5807 22.71C85.3421 23.6392 85.175 24.5853 85.0807 25.54L85.7707 25.88C86.9107 24.11 88.0107 22.3 89.2207 20.57C89.6907 19.9 90.3207 19.03 91.0107 18.88C101.711 16.56 115.291 21.18 119.091 34.28C121.221 41.5 125.221 46.39 132.781 47.76C133.728 48.0609 134.635 48.4774 135.481 49C134.863 49.5686 134.06 49.8952 133.221 49.92C129.721 49.75 126.221 49.66 122.741 49.2C119.641 48.79 116.741 48.38 113.741 50.08C111.155 51.6194 108.409 52.8702 105.551 53.81C99.9407 55.6 94.2207 57.24 88.4107 58.57C77.8807 61 67.4107 61.03 57.6507 55.57C56.0327 54.5878 54.2275 53.9542 52.3506 53.7097C50.4736 53.4652 48.5663 53.6151 46.7507 54.15C38.7347 56.0538 30.5946 57.3904 22.3907 58.15C13.2607 59.1 4.2007 58.28 -4.4193 54.54C-7.4193 53.23 -10.6093 52.22 -13.6893 51.03C-20.4035 48.3877 -27.7008 47.5834 -34.8293 48.7C-38.3693 49.25 -41.9193 49.79 -45.4793 50.23C-55.0593 51.4 -64.2393 50.68 -72.2393 44.23C-73.5048 43.2917 -74.9945 42.7021 -76.5593 42.52C-80.0193 42.08 -83.5093 41.96 -86.9893 41.71C-82.0796 41.2026 -77.1371 41.0889 -72.2093 41.37C-64.3264 42.0086 -56.3946 41.1017 -48.8593 38.7C-43.2493 36.92 -37.5693 35.36 -31.5493 36.09C-30.573 36.2048 -29.5854 36.0073 -28.7284 35.5258C-27.8714 35.0443 -27.189 34.3035 -26.7793 33.41C-25.8993 31.82 -24.9893 30.23 -23.9993 28.71C-21.0455 23.9255 -16.5478 20.292 -11.2493 18.41C-5.31652 16.3177 1.152 16.3087 7.09055 18.3846C13.0291 20.4605 18.0834 24.4973 21.4207 29.83C21.8787 30.3962 22.3986 30.9094 22.9707 31.36L23.7107 30.96C23.1707 29 22.6407 27.05 22.0707 25Z" fill="white"/>
<path d="M73.8107 42.24C73.1707 40.67 72.8107 38.91 71.8107 37.58C66.6207 30.38 60.1407 24.94 51.0507 24.26C48.2007 24.05 45.2207 25.26 42.3407 25.91C41.8507 26.03 41.5407 26.91 41.1507 27.49C41.7607 27.69 42.4307 28.17 42.9807 28.05C52.6907 26 60.1207 30.29 66.7807 36.8C68.7807 38.8 70.9107 40.8 72.9707 42.8L73.8107 42.24Z" fill="white"/>
<path d="M29.7108 22.87C33.2208 20.24 36.3908 17.41 39.9808 15.31C43.5708 13.21 47.4508 11.88 51.5308 10.07C46.0808 7.72 29.1408 17.32 29.7108 22.87Z" fill="white"/>
<path d="M113.441 46.62C116.191 46.37 116.971 44.42 117.251 42.56C117.971 37.74 117.101 33.24 113.761 29.56C113.051 28.9055 112.281 28.3196 111.461 27.81L110.911 28.19C111.027 28.8791 111.228 29.551 111.511 30.19C113.03 32.6143 113.991 35.3461 114.325 38.1877C114.659 41.0293 114.357 43.9096 113.441 46.62Z" fill="white"/>
<path d="M108.011 44.35C109.701 45.15 110.731 44.13 111.601 42.95C113.351 40.59 113.021 35.2 110.991 33.08C110.611 32.68 109.891 32.62 109.331 32.4C109.072 32.9447 108.91 33.53 108.851 34.13C109.001 35.87 109.591 37.61 109.461 39.31C109.155 41.0362 108.669 42.7255 108.011 44.35Z" fill="white"/>
<path d="M45.8307 51.07C44.4007 50.26 30.2307 52.75 27.0807 54.36C30.7207 55.82 44.1207 53.47 45.8307 51.07Z" fill="white"/>
<path d="M10.3507 23.75C12.3507 25.99 14.5507 27.64 15.7107 29.84C16.8707 32.04 16.9007 34.64 17.5107 37.43C19.5107 35.65 18.9707 33.43 18.7207 31.43C18.2807 27.78 14.5607 24.32 10.3507 23.75Z" fill="white"/>
<path d="M74.1407 13.92C76.7007 17.92 77.8207 22.18 75.6007 26.92C78.1107 26.46 79.0307 24.98 79.1407 21.92C79.2907 17.84 77.4307 14.56 74.1407 13.92Z" fill="white"/>
<path d="M80.3107 55.45C84.9807 57.33 91.8607 55.45 94.3907 51.68L80.3107 55.45Z" fill="white"/>
<path d="M13.8507 35.75C15.3607 35.12 15.8507 33.81 15.1007 31.66C14.2007 28.96 11.3807 26.81 9.3607 27.35C10.8307 30.09 12.2907 32.83 13.8507 35.75Z" fill="white"/>
<path d="M75.2206 39.17C75.8906 35.94 74.2206 31.92 71.9606 30.79C71.2442 30.6138 70.5002 30.5798 69.7706 30.69C69.8637 31.3433 70.0594 31.9778 70.3506 32.57C71.9006 34.71 73.4906 36.78 75.2206 39.17Z" fill="white"/>
<path d="M78.9007 14.61C82.6107 19.35 82.6306 23.89 79.4106 28.51C81.5606 28.2 82.8307 26.05 83.2907 22.41C83.6607 19.59 81.7507 15.77 78.9007 14.61Z" fill="white"/>
<path d="M71.3507 26.87C72.9707 27.58 73.8807 26.93 74.4607 25.52C75.4007 23.24 74.7307 20.23 72.8107 19.01C72.3107 21.68 71.8407 24.24 71.3507 26.87Z" fill="white"/>
<path d="M101.811 45.18C105.361 43.79 106.661 39.45 104.421 35.81C103.491 39.15 102.681 42 101.811 45.18Z" fill="white"/>
<path d="M99.4707 41.47C101.761 40.12 102.721 37.33 101.641 35.47C101.524 35.2646 101.365 35.0868 101.173 34.9487C100.982 34.8106 100.762 34.7156 100.531 34.67C100.281 34.67 99.8007 35.3 99.7707 35.67C99.6107 37.51 99.5607 39.4 99.4707 41.47Z" fill="white"/>
<path d="M38.6007 48.92C35.8107 48.36 33.4607 49.35 30.8307 50.08C33.9307 51.76 36.8907 51.34 38.6007 48.92Z" fill="white"/>
<path d="M7.74066 30.65C8.23066 32.55 8.65065 34.13 9.11065 35.91C10.9107 33.94 10.3907 31.82 7.74066 30.65Z" fill="white"/>
<path d="M67.4507 21.46C67.0307 23.33 66.7207 24.68 66.3707 26.24C68.6607 25.59 69.0307 24.17 67.4507 21.46Z" fill="white"/>
</g>
<defs>
<clipPath id="clip0_23_880">
<rect width="239.22" height="64.89" fill="white" transform="matrix(-1 0 0 1 140.221 0)"/>
</clipPath>
</defs>
</svg>
