<svg width="199" height="118" viewBox="0 0 199 118" fill="none" xmlns="http://www.w3.org/2000/svg">
<g clip-path="url(#clip0_23_831)">
<path d="M152.548 103.672C160.855 107.979 168.474 106.608 175.967 101.989C176.689 101.521 177.558 101.338 178.406 101.476C184.262 103.074 190.099 104.757 195.916 106.524C205.857 109.544 215.672 108.905 225.328 105.405C229.518 103.89 233.424 101.644 237.582 100.054C240.074 99.0414 242.711 98.4336 245.394 98.2534C252.719 97.9505 260.087 98.3291 267.396 97.8327C272.76 97.471 278.066 96.15 283.388 95.2414C285.103 95.0005 286.788 94.5832 288.417 93.9962C289.686 93.3292 290.88 92.5282 291.98 91.6067C290.303 89.3519 288.132 89.15 286.179 88.9228C277.999 87.9889 269.793 87.3242 261.629 86.323C258.017 85.8771 254.471 84.859 250.892 84.1187C249.316 83.7905 247.741 83.4961 246.014 83.1511C244.539 75.6294 239.719 71.0103 232.477 68.9911C227.448 67.5944 222.419 68.5368 217.566 70.0764C214.121 71.0309 210.982 72.8659 208.455 75.4022C206.594 65.306 201.674 57.7338 192.53 53.6448C183.561 49.6399 174.685 50.8094 166.001 54.8647C165.842 52.0799 165.859 49.3202 165.498 46.6195C164.151 36.486 159.535 27.0742 152.356 19.8223C138.71 5.70439 122.064 -0.891831 102.786 0.100968C88.5366 0.832946 76.3243 6.62147 66.9367 17.8451C61.7986 23.9786 58.798 31.3068 56.7863 39.1146C56.5231 39.9415 56.3131 40.7846 56.1577 41.6387C55.8979 43.6243 54.8585 44.3142 52.9139 44.5161C48.7177 44.8099 44.5521 45.4458 40.4586 46.4175C29.7969 49.295 21.9516 57.0691 20.9541 69.9418C19.3819 71.1523 17.745 72.2758 16.0508 73.3072C14.4105 74.1491 12.6815 74.8038 10.896 75.2592C8.29762 75.9743 5.55677 76.2099 3.02546 77.1186C-0.662529 78.4311 -1.07324 82.2929 2.09508 84.6908C4.71859 86.6595 7.80309 87.3242 10.896 87.8122C11.9018 87.9721 12.916 88.0478 13.9553 88.1572C14.1397 89.7221 14.3157 91.2281 14.5085 92.8183C13.6703 92.8183 12.7232 92.8183 11.7928 92.8183C10.3048 92.7938 8.83063 93.109 7.48171 93.7401C6.13278 94.3712 4.94434 95.3017 4.00613 96.4613C1.5335 99.465 1.91068 102.99 4.96166 105.338C7.97801 107.712 11.6073 109.171 15.4221 109.544C22.1863 110.15 29.0007 110.512 35.4127 107.298C35.8067 107.104 36.7203 107.534 37.1645 107.937C42.7235 113.064 49.7331 116.327 57.2222 117.276C66.2428 118.609 75.4405 118.053 84.2367 115.644C87.9067 114.71 91.5151 113.546 95.0409 112.161C97.4716 111.135 99.5754 109.309 101.822 107.845C108.921 115.476 118.2 116.974 128.208 116.006C133.866 115.467 139.351 113.748 144.309 110.958C147.561 109.166 150.587 107.054 152.548 103.672ZM177.157 97.6897C177.282 97.2281 177.355 96.754 177.375 96.2762C177.298 95.8889 177.165 95.5148 176.981 95.1656C176.654 95.3507 176.219 95.4601 176.009 95.7378C173.86 98.5647 170.899 100.662 167.525 101.747C164.151 102.831 160.527 102.851 157.142 101.804C155.038 101.19 153.093 100.626 153.479 97.6561C153.554 97.1092 152.884 96.4529 152.565 95.8471C152.23 96.4277 151.668 96.983 151.61 97.5972C151.182 101.627 149.045 104.429 145.809 106.482C132.935 114.668 117.546 116.275 102.325 106.053C101.336 105.38 100.808 105.598 99.961 106.053C97.5386 107.416 95.1834 109.006 92.6018 109.931C83.2345 113.312 73.3038 114.841 63.3577 114.433C52.4613 114.012 43.124 110.083 35.4295 102.098C33.9208 100.533 32.2947 99.0948 30.3585 97.2438C30.962 98.8171 31.3559 100.062 31.9175 101.223C32.4791 102.384 33.2251 103.487 34.2225 105.195C30.392 105.708 26.9723 106.507 23.5525 106.524C19.9064 106.524 16.2687 105.683 12.6562 105.472C10.4165 105.325 8.28855 104.437 6.60449 102.948C4.92813 101.585 4.81079 100.163 6.15188 98.4722C6.84291 97.6203 7.70419 96.9234 8.68015 96.4263C9.6561 95.9292 10.725 95.6431 11.818 95.5863C16.8471 95.0983 17.1739 95.4517 17.0482 89.8483C16.9895 87.3242 17.9954 85.2797 20.4009 84.5141C22.2103 84.0716 24.0516 83.7734 25.9078 83.6223C25.8659 83.3278 25.7821 82.6126 25.6312 81.9395C24.5415 77.0513 23.4603 72.1125 24.441 67.1065C26.3604 57.3467 32.5462 51.6171 41.6991 49.3118C45.6804 48.3106 49.8881 48.1339 54.0036 47.7721C57.0797 47.4945 58.3621 46.67 59.2422 43.6747C59.6948 42.1351 60.0804 40.5701 60.4492 39.022C65.9393 18.2742 79.895 6.84022 99.0641 4.14788C115.668 1.81733 130.756 6.37747 144.049 16.987C153.722 24.7106 160.209 34.546 162.271 47.0654C162.824 50.4308 162.506 53.9308 162.64 57.3636C162.732 57.9961 162.892 58.6167 163.118 59.2146C163.612 58.9621 164.115 58.7266 164.601 58.4489C165.385 57.8888 166.229 57.4175 167.116 57.0439C170.117 56.2025 173.126 55.2854 176.185 54.7049C188.707 52.3407 200.216 59.5006 204.08 71.9527C204.407 73.0128 204.683 74.0813 204.918 75.1582C205.153 76.2352 205.379 77.1691 205.672 78.4563C200.895 74.7712 199.805 74.4599 198.489 76.252C204.398 79.0705 207.55 84.1271 209.226 90.412C210.659 87.1391 209.88 84.2533 208.086 81.6114C207.892 81.3929 207.747 81.1357 207.659 80.8568C207.571 80.5778 207.542 80.2833 207.576 79.9927C207.609 79.702 207.703 79.4216 207.852 79.1699C208 78.9182 208.2 78.7008 208.438 78.5321C215.219 72.8782 222.939 70.1942 231.622 71.9358C238.546 73.3241 242.954 79.365 243.122 86.71C243.185 87.1567 243.301 87.5945 243.466 88.0141C243.583 88.1572 243.692 88.3002 243.809 88.4348C244.648 85.5658 246.534 85.9696 248.386 86.3567C249.224 86.5418 250.062 86.9793 250.959 87.198C253.435 87.9221 255.955 88.4842 258.503 88.8807C265.141 89.6127 271.805 90.0754 278.451 90.6896C281.804 90.9925 285.157 91.4048 288.51 91.775C287.866 92.3835 287.048 92.7722 286.171 92.8856C279.466 93.525 272.76 94.3159 266.055 94.644C259.634 94.9553 253.18 94.8123 246.777 94.8123C242.493 94.8099 238.274 95.8522 234.48 97.8496C223.852 103.302 212.503 105.834 200.735 103.848C192.781 102.511 185.019 99.8015 177.115 97.6897H177.157ZM22.5467 80.5092C20.4596 81.5778 18.0876 82.192 16.5705 83.7148C16.0121 84.3581 15.2884 84.8349 14.4783 85.0931C13.6682 85.3513 12.803 85.3809 11.9772 85.1788C11.1326 85.1173 10.2927 85.0021 9.46269 84.8338C7.62694 84.3115 5.83133 83.6563 4.08995 82.8735C3.74166 82.656 3.4459 82.3635 3.2241 82.0172C3.0023 81.6709 2.86001 81.2794 2.80754 80.871C2.80754 80.4167 3.77144 79.6342 4.41684 79.4744C6.89626 78.8049 9.416 78.2963 11.9605 77.9515C14.1399 77.7379 16.1949 76.8332 17.8277 75.3686C18.7581 74.5272 19.7555 73.7784 20.8116 72.9118C21.457 75.7219 22.0438 78.2965 22.5467 80.5092Z" fill="white"/>
<path d="M79.8953 67.3084C76.442 77.7159 92.8535 93.7269 105.275 91.9601L103.23 91.0262C100.716 89.8988 98.1005 88.906 95.6866 87.6608C89.2326 84.2953 84.7316 78.9022 81.5716 72.3229C80.903 70.6904 80.343 69.0152 79.8953 67.3084Z" fill="white"/>
<path d="M68.7979 58.7602C68.8733 57.6917 69.0325 56.6148 69.0242 55.5462C68.9929 49.8892 69.7403 44.255 71.2453 38.8033C71.804 37.1955 72.4504 35.6198 73.1815 34.0833C73.3001 33.6043 73.362 33.1129 73.3659 32.6193C72.8295 32.7287 72.1338 32.6193 71.8069 32.9727C71.2018 33.5767 70.7255 34.2981 70.4072 35.0929C67.9764 41.2432 66.3336 47.5786 66.8868 54.2926C67.1498 55.8584 67.5481 57.3983 68.077 58.8948L68.7979 58.7602Z" fill="white"/>
<path d="M140.345 23.6C145.24 29.4895 148.836 35.8585 148.408 44.3899C150.579 42.1603 150.562 39.8971 150.252 37.7768C149.414 32.0051 146.212 27.588 142.046 23.8356C141.624 23.5565 141.164 23.3384 140.68 23.1877L140.345 23.6Z" fill="white"/>
<path d="M78.3279 110.478C81.5381 112.826 93.281 108.678 96.7678 103.949L78.3279 110.478Z" fill="white"/>
<path d="M30.4763 84.7497C30.3589 90.6391 39.1598 100.971 43.8368 100.416C41.3223 97.9589 38.7575 95.7293 36.5447 93.1464C34.3319 90.5634 32.5717 87.686 30.4763 84.7497Z" fill="white"/>
<path d="M153.672 46.7288C155.432 41.5713 154.787 36.6326 152.473 31.8705C150.478 27.7563 147.964 25.1986 145.542 25.0976C151.836 31.1301 153.705 38.5172 153.672 46.7288Z" fill="white"/>
<path d="M84.606 15.0266C90.2469 11.2994 96.4327 9.8691 102.903 9.39794C97.1452 7.22725 91.8898 8.69962 86.8775 11.7453C85.7375 12.4352 84.4132 13.1588 84.606 15.0266Z" fill="white"/>
<path d="M28.4981 70.7495C29.6883 65.6341 29.6129 60.0223 34.181 56.2446L33.6529 55.6136C32.8844 55.7445 32.1408 55.9943 31.4485 56.354C27.8611 59.0968 27.0564 63.0343 27.2576 67.2916C27.3933 68.4299 27.6204 69.5553 27.9365 70.657L28.4981 70.7495Z" fill="white"/>
<path d="M141.82 103.579C146.195 102.006 148.4 98.5311 149.816 94.4505C150.789 91.674 151.283 88.7629 150.244 85.9192H149.749C148.961 89.0827 148.576 92.4312 147.277 95.3592C145.977 98.2871 143.781 100.702 141.82 103.579Z" fill="white"/>
<path d="M91.2862 90.025C87.2517 85.8855 83.2815 81.8189 79.3756 77.8253C78.9314 79.6595 81.119 83.3951 85.0501 87.0802C86.8354 88.7629 88.6878 90.3867 91.2862 90.025Z" fill="white"/>
<path d="M177.015 58.5499C173.369 56.4717 164.937 59.1136 163.168 63.2362L177.015 58.5499Z" fill="white"/>
<path d="M42.0011 94.4421L33.5271 83.9756C32.2782 86.6595 38.1455 94.1813 42.0011 94.4421Z" fill="white"/>
<path d="M64.5398 56.3203C65.0846 51.1207 65.5959 46.224 66.1072 41.2684C63.8776 42.2528 62.5868 52.9212 64.5398 56.3203Z" fill="white"/>
<path d="M36.6033 98.6909L29.244 89.9324C28.6238 92.8183 33.5271 98.7414 36.6033 98.6909Z" fill="white"/>
<path d="M136.556 96.7558C139.674 97.2186 142.055 92.8099 141.971 90.7485C141.961 90.5738 141.913 90.4034 141.831 90.2493C141.748 90.0952 141.633 89.9612 141.493 89.8567C141.335 89.814 141.169 89.8141 141.012 89.857C140.854 89.8999 140.711 89.984 140.596 90.1007C139.23 92.2798 137.914 94.501 136.556 96.7558Z" fill="white"/>
<path d="M140.244 98.5142C143.999 97.2438 146.279 93.1296 144.896 90.0502L140.244 98.5142Z" fill="white"/>
<path d="M200.048 80.9636C199.21 77.4719 195.698 75.8649 193.343 77.859L200.048 80.9636Z" fill="white"/>
<path d="M144.653 40.2168C145.935 37.2973 144.301 32.7624 141.099 30.9619C142.348 34.2011 143.48 37.1711 144.653 40.2168Z" fill="white"/>
<path d="M78.5793 82.0742C78.3446 85.0273 81.6973 88.6956 85.335 89.1584L78.5793 82.0742Z" fill="white"/>
<path d="M23.5865 90.2605C22.5807 92.5743 23.5865 94.3495 26.1932 94.9637C25.1874 93.1548 24.3828 91.7077 23.5865 90.2605Z" fill="white"/>
<path d="M25.6735 89.394C25.6675 90.2644 25.8859 91.1215 26.3074 91.8822C26.7289 92.6429 27.3392 93.2813 28.079 93.7353L28.6658 93.4072L26.3775 89.0406L25.6735 89.394Z" fill="white"/>
<path d="M61.9499 55.0414V49.4044C60.81 50.8767 60.81 52.896 61.9499 55.0414Z" fill="white"/>
</g>
<defs>
<clipPath id="clip0_23_831">
<rect width="343" height="118" fill="white"/>
</clipPath>
</defs>
</svg>
