<svg width="35" height="34" viewBox="0 0 35 34" fill="none" xmlns="http://www.w3.org/2000/svg">
<path d="M34.9796 20.714L31.9387 7.56174C31.7401 6.91879 31.2584 6.39595 30.6573 6.07447L18.4513 0.201364C18.1314 0.0406261 17.7711 0 17.4512 0C17.1313 0 16.7709 1.31603e-07 16.451 0.0794858L4.24156 5.99322C3.94091 6.13136 3.67611 6.33748 3.46785 6.59548C3.25958 6.85347 3.1135 7.15636 3.04101 7.48048L0.038744 20.714C-0.0807841 21.3975 0.0791726 22.0811 0.478186 22.6446L8.92425 33.142C9.40412 33.6242 10.0844 33.9474 10.7646 33.9881H24.2133C24.934 34.0676 25.6142 33.7461 26.0554 33.142L34.5015 22.6446C34.9005 22.0811 35.0605 21.3975 34.9796 20.714ZM29.9788 21.5989C29.8979 21.5989 29.8593 21.5989 29.7784 21.5583C29.7397 21.5177 29.7397 21.5176 29.6993 21.5176C29.6184 21.5176 29.5798 21.4788 29.5376 21.4788C29.3776 21.4382 29.2581 21.3587 29.0981 21.2774C29.0129 21.2697 28.9305 21.2425 28.8573 21.1979H28.8187C28.4042 21.0359 27.975 20.9146 27.5372 20.8358H27.4986C27.3805 20.8328 27.2658 20.8759 27.1787 20.956C27.1787 20.956 27.1787 20.9966 27.1382 20.9966L26.8166 20.9542C26.0813 23.2433 24.545 25.1869 22.4925 26.4246L22.612 26.746C22.612 26.746 22.5733 26.746 22.5733 26.7849C22.5372 26.8448 22.5149 26.9121 22.5082 26.9818C22.5016 27.0515 22.5106 27.1219 22.5346 27.1876C22.6946 27.5904 22.895 27.9913 23.1745 28.3534V28.4329C23.2397 28.4895 23.294 28.5578 23.3344 28.6343C23.45 28.7513 23.5445 28.8876 23.6139 29.037C23.6543 29.0759 23.6948 29.1165 23.6948 29.1571C23.6948 29.1571 23.7334 29.1571 23.7334 29.196C23.807 29.3887 23.821 29.5992 23.7739 29.8001C23.7498 29.8958 23.705 29.9849 23.6428 30.0613C23.5805 30.1376 23.5022 30.1992 23.4135 30.2416C23.294 30.2805 23.2131 30.3211 23.0919 30.3211C22.934 30.3151 22.7805 30.2674 22.6469 30.1827C22.5132 30.098 22.4042 29.9794 22.3307 29.8389C22.2921 29.8389 22.2921 29.8001 22.2921 29.8001C22.2534 29.7594 22.2534 29.7206 22.2112 29.6799C22.1321 29.5598 22.0917 29.3991 22.0513 29.2384L21.9704 28.9964V28.9575C21.839 28.5254 21.6647 28.1076 21.4501 27.7105C21.373 27.5965 21.2605 27.5114 21.1302 27.4685C21.1302 27.4279 21.1302 27.4278 21.0898 27.4278L20.9298 27.147C20.529 27.2671 20.0878 27.4279 19.6484 27.5091C18.9277 27.7105 18.207 27.79 17.4881 27.79C16.2974 27.7983 15.1159 27.5802 14.006 27.147L13.846 27.4685C13.846 27.5091 13.846 27.5091 13.8056 27.5091C13.6751 27.5517 13.5625 27.6368 13.4857 27.7511C13.2853 28.1538 13.0849 28.5548 12.9654 28.9981L12.8863 29.2401C12.8458 29.4009 12.7667 29.521 12.7263 29.6817C12.6876 29.7223 12.6472 29.7612 12.6472 29.8018C12.6068 29.8018 12.6068 29.8407 12.6068 29.8407C12.5337 29.9816 12.4248 30.1004 12.2911 30.1852C12.1574 30.2699 12.0036 30.3174 11.8457 30.3229C11.7483 30.3146 11.6534 30.2876 11.5662 30.2434C11.3855 30.137 11.252 29.9655 11.1926 29.7638C11.1331 29.5621 11.1523 29.3451 11.2463 29.1571C11.2867 29.1571 11.2867 29.1165 11.2867 29.1165C11.3254 29.0759 11.3254 29.037 11.3658 28.9964C11.4853 28.8356 11.5662 28.6749 11.6453 28.5936C11.7244 28.5124 11.7648 28.4735 11.8052 28.3923V28.3517C12.0571 27.9858 12.2715 27.5952 12.4451 27.1859C12.4684 27.1199 12.4768 27.0496 12.4698 26.9799C12.4629 26.9103 12.4406 26.8431 12.4046 26.7831C12.4046 26.7831 12.366 26.7831 12.366 26.7443L12.5663 26.4617C12.1821 26.2584 11.8198 26.0157 11.4853 25.7375C9.94369 24.5379 8.79959 22.8974 8.20357 21.0319L7.84323 21.0708C7.84323 21.0708 7.84323 21.0319 7.8028 21.0319C7.71601 20.9512 7.60109 20.908 7.48289 20.9118H7.44421C6.99355 20.9892 6.55145 21.1105 6.12413 21.2739H6.08195C6.00285 21.2739 5.92199 21.3145 5.84113 21.3551C5.7216 21.394 5.56165 21.4753 5.40169 21.5159C5.36302 21.5159 5.24173 21.477 5.24173 21.5159C5.24173 21.5565 5.24173 21.5565 5.2013 21.5565C5.1222 21.5971 5.08178 21.5971 5.00092 21.5971C4.82216 21.6161 4.64258 21.5696 4.49528 21.466C4.34799 21.3625 4.2429 21.2089 4.19938 21.0337C4.17941 20.9305 4.18021 20.8244 4.20175 20.7216C4.22329 20.6188 4.26512 20.5214 4.32477 20.4351C4.38441 20.3488 4.46067 20.2754 4.54903 20.2193C4.63739 20.1631 4.73606 20.1253 4.8392 20.1081C4.87963 20.0675 4.87963 20.0675 4.92006 20.0675C4.99916 20.0675 5.03959 20.0286 5.08002 20.0286C5.23998 20.0286 5.39993 19.988 5.55989 19.988C5.63899 19.9491 5.71985 19.9491 5.8007 19.9491C6.26074 19.9114 6.71624 19.8304 7.16121 19.7071C7.28074 19.6259 7.40203 19.5464 7.44246 19.4245C7.44246 19.4245 7.48113 19.4245 7.48113 19.3857L7.80104 19.3044C7.4407 17.0117 7.961 14.6801 9.20198 12.7089C9.24065 12.6294 9.28108 12.5888 9.32151 12.5075L9.09124 12.2744C9.08993 12.2857 9.08757 12.297 9.08421 12.3079V12.2673L9.09124 12.2744C9.10882 12.1595 9.03675 12.0182 8.96468 11.9458C8.64477 11.6243 8.244 11.3823 7.84323 11.1421L7.60417 11.0202C7.45282 10.9484 7.30553 10.8682 7.16297 10.78C7.1243 10.78 7.04344 10.7005 7.04344 10.7005C7.04344 10.7005 7.04344 10.6599 7.00477 10.6599C6.84629 10.5234 6.74254 10.3337 6.71279 10.1261C6.68304 9.9185 6.72934 9.7071 6.84306 9.53121C6.96259 9.32985 7.16297 9.25036 7.40379 9.25036C7.60735 9.25531 7.80394 9.32591 7.96451 9.45173L8.00494 9.49235C8.04361 9.53121 8.08404 9.53121 8.12447 9.57184C8.244 9.69372 8.32486 9.81383 8.44438 9.93394C8.48481 9.9728 8.56391 10.0134 8.60434 10.0947C8.88383 10.4162 9.24417 10.7376 9.60451 11.0202C9.68361 11.0591 9.76447 11.0997 9.84532 11.0997C9.92442 11.0997 9.96485 11.0591 10.0053 11.0591H10.0457L10.2865 11.2198C11.606 9.80191 13.323 8.82007 15.21 8.40428C15.6899 8.32303 16.1293 8.24355 16.5705 8.20292L16.611 7.88144V7.80196C16.7305 7.72247 16.7709 7.60059 16.8114 7.48048C16.8114 6.99827 16.8114 6.55492 16.7323 6.11333V6.0727C16.7323 5.99322 16.7323 5.91197 16.6918 5.83071C16.6459 5.67384 16.6193 5.51189 16.6127 5.3485V5.1489C16.6127 4.94754 16.6918 4.74618 16.8535 4.58544C17.0539 4.38408 17.293 4.26396 17.5338 4.30459C17.7326 4.33231 17.9135 4.43497 18.0399 4.59175C18.1662 4.74853 18.2284 4.9477 18.2141 5.1489V5.39089C18.1736 5.55163 18.1736 5.71237 18.135 5.87311C18.135 5.95259 18.0945 6.03384 18.0945 6.11333V6.15396C18.0101 6.63617 18.0101 7.07952 18.0101 7.52111C18.0506 7.64122 18.0892 7.76133 18.2105 7.84258V7.80196L18.251 8.12343C20.1447 8.32216 21.9462 9.04627 23.454 10.2148C23.7756 10.5363 24.1342 10.8577 24.4541 11.1792L24.7758 10.9779H24.8145C24.8531 11.0185 24.934 11.0185 24.9744 11.0185C25.0553 11.0185 25.1344 10.9779 25.2152 10.939C25.5756 10.697 25.9359 10.3755 26.2154 10.0541C26.2541 10.0134 26.3349 9.9728 26.3754 9.89332C26.4562 9.7732 26.5757 9.65132 26.697 9.53121C26.7357 9.53121 26.7761 9.49235 26.8166 9.45173L26.8552 9.4111C27.0157 9.28629 27.2114 9.21579 27.4142 9.20974C27.6146 9.20974 27.8554 9.32985 27.9749 9.49235C28.2544 9.85445 28.1736 10.3367 27.815 10.6175C27.815 10.6581 27.8536 10.6581 27.815 10.6988C27.7745 10.7376 27.7341 10.7376 27.6954 10.7783C27.5337 10.8577 27.4142 10.939 27.2542 11.0202L27.0134 11.1404C26.615 11.3717 26.2394 11.6408 25.892 11.944C25.8129 12.0253 25.7724 12.186 25.7724 12.3061V12.3468L25.5334 12.5888C26.1732 13.5938 26.6548 14.7207 26.9343 15.8865C27.1751 17.0523 27.2542 18.2587 27.0943 19.4245L27.4142 19.5058C27.4389 19.5697 27.4768 19.6278 27.5252 19.6762C27.5736 19.7245 27.6316 19.7622 27.6954 19.7866C28.1349 19.9067 28.6148 19.988 29.0542 20.0286H29.0946C29.1707 20.0605 29.2532 20.0738 29.3354 20.0675C29.4954 20.0675 29.6554 20.0675 29.8136 20.1081C29.8944 20.1081 29.9753 20.1081 29.9753 20.1487C29.9753 20.1876 30.0139 20.1876 30.0544 20.1876C30.2479 20.2342 30.4219 20.3412 30.5513 20.4932C30.6807 20.6451 30.759 20.8343 30.7751 21.0337C30.7147 21.1977 30.6063 21.3395 30.4642 21.4404C30.322 21.5413 30.1528 21.5966 29.9788 21.5989Z" fill="#0D3F56"/>
</svg>
