<svg width="90" height="72" viewBox="0 0 90 72" fill="none" xmlns="http://www.w3.org/2000/svg">
<path d="M76.2174 24.7463V42.3224H13.7677V24.7463C5.63796 28.8596 0.0594482 37.2943 0.0594482 47.0307C0.0594482 59.1026 8.62805 69.1736 20.0231 71.4943C20.0231 64.4207 20.0231 57.3769 20.0231 50.2811C17.8958 49.1877 15.8652 48.1538 13.7752 47.0827H76.2248C76.2248 47.0827 76.2248 47.0827 76.2248 47.0902C74.2537 48.1092 72.1785 49.1802 69.9694 50.3183C69.9694 57.3546 69.9694 64.3836 69.9694 71.5017C81.3645 69.1885 89.9405 59.1174 89.9405 47.0381C89.9331 37.2943 84.3545 28.8596 76.2174 24.7463Z" fill="#37A7D8"/>
<path d="M44.9929 0C32.6979 0 22.2921 8.02562 18.6995 19.1231H26.1971V31.3289H38.8491V19.0934H44.9929H51.1367V31.3289H63.7888V19.1231H71.2863C67.6938 8.02562 57.288 0 44.9929 0Z" fill="#37A7D8"/>
<path d="M49.6929 58.1428H40.2913V71.9998H49.6929V58.1428Z" fill="#37A7D8"/>
</svg>
