<svg width="22" height="17" viewBox="0 0 22 17" fill="none" xmlns="http://www.w3.org/2000/svg">
<path d="M4.03396 8.117C3.08817 8.35499 2.26184 8.93016 1.71021 9.73444C1.15859 10.5387 0.919644 11.5168 1.03827 12.4848C1.15689 13.4528 1.62492 14.3442 2.35443 14.9915C3.08393 15.6388 4.02469 15.9974 4.99996 16H16C16.706 15.9995 17.4039 15.8495 18.0478 15.5599C18.6917 15.2702 19.267 14.8475 19.7357 14.3195C20.2044 13.7915 20.556 13.1702 20.7673 12.4965C20.9787 11.8229 21.0449 11.1121 20.9617 10.4109C20.8786 9.70982 20.6478 9.03427 20.2848 8.42874C19.9217 7.82321 19.4345 7.30145 18.8552 6.89779C18.2759 6.49412 17.6177 6.21772 16.924 6.08676C16.2302 5.9558 15.5165 5.97327 14.83 6.138L13.5 6.5" stroke="#37A7D8" stroke-width="2" stroke-linecap="round" stroke-linejoin="round"/>
<path d="M14.8299 6.13796C14.4881 4.78453 13.6445 3.6117 12.47 2.85722C11.2956 2.10274 9.87819 1.82305 8.50517 2.07487C7.13215 2.32668 5.90625 3.09115 5.07598 4.2133C4.2457 5.33545 3.87318 6.73133 4.03392 8.11796C4.03392 8.11796 4.18692 8.99996 4.49992 9.49996" stroke="#37A7D8" stroke-width="2" stroke-linecap="round" stroke-linejoin="round"/>
</svg>
