<svg width="111" height="118" viewBox="0 0 111 118" fill="none" xmlns="http://www.w3.org/2000/svg">
<path d="M91.3321 20.4694L57.0121 0.659371C56.9521 0.629371 56.8921 0.589375 56.8321 0.569375C56.2321 0.289375 55.5321 0.289375 54.9221 0.569375C54.8621 0.599375 54.8021 0.629371 54.7421 0.659371L20.4221 20.4694C19.7221 20.8794 19.2821 21.6294 19.2821 22.4394V62.0694C19.2821 62.2594 19.3021 62.4394 19.3521 62.6194C19.4921 63.1794 19.8421 63.6694 20.3421 63.9894C20.3721 64.0094 20.4021 64.0294 20.4221 64.0394L54.7421 83.8494C55.4421 84.2594 56.3121 84.2594 57.0221 83.8494L91.3421 64.0394C91.3721 64.0194 91.4021 64.0094 91.4221 63.9894C91.9221 63.6694 92.2721 63.1794 92.4121 62.6194C92.4521 62.4394 92.4821 62.2594 92.4821 62.0694V22.4394C92.4721 21.6294 92.0421 20.8794 91.3321 20.4694ZM88.1521 22.0494L73.9521 30.2094L59.7821 5.67938L88.1521 22.0494ZM55.8321 4.76937C55.8521 4.72937 55.9121 4.72937 55.9321 4.76937L66.9721 23.8894C63.7521 21.9694 59.9921 20.8694 55.9721 20.8694C51.8421 20.8694 47.9921 22.0294 44.7121 24.0494L55.8321 4.76937ZM52.0521 5.52937L37.7821 30.2494L23.4921 22.0494L52.0521 5.52937ZM22.1621 24.4994L36.2921 32.8294L36.2221 32.9594L22.1621 57.6794V24.4994ZM34.4521 41.7994C34.4421 41.9894 34.4421 42.1894 34.4421 42.3794C34.4421 50.5094 38.9521 57.5794 45.6021 61.2394H23.2221L34.4521 41.7994ZM54.5321 80.6594L25.6521 63.9894H54.5221V80.6594H54.5321ZM55.8721 61.0494C55.4221 61.0494 54.9721 61.0294 54.5221 60.9994C44.8521 60.3094 37.2221 52.2394 37.2221 42.3994C37.2221 39.5494 37.8621 36.8494 39.0021 34.4294C39.4321 33.5194 39.9421 32.6394 40.5121 31.8194C43.8721 26.9394 49.5021 23.7494 55.8721 23.7494C62.2321 23.7494 67.8421 26.9294 71.2121 31.7894C71.8021 32.6394 72.3221 33.5294 72.7621 34.4694C73.8921 36.8694 74.5221 39.5594 74.5221 42.3894C74.5221 52.2094 66.9421 60.2494 57.3121 60.9794C56.8421 61.0294 56.3621 61.0494 55.8721 61.0494ZM57.3121 80.6594V63.9894H86.1821L57.3121 80.6594ZM66.3321 61.2494C72.9821 57.5894 77.4821 50.5094 77.4821 42.3894C77.4821 42.2894 77.4821 42.1994 77.4821 42.0994L88.5421 61.2494H66.3321ZM89.6821 57.8294L75.5421 32.9594L75.4921 32.8694L89.6821 24.4994V57.8294Z" fill="url(#paint0_linear_40_1468)"/>
<path d="M13.3142 94.7276C13.2302 94.8675 13.137 94.9748 13.0344 95.0494C12.9411 95.1147 12.8245 95.1473 12.6846 95.1473C12.5261 95.1473 12.3396 95.068 12.1251 94.9095C11.9106 94.7509 11.6401 94.5784 11.3137 94.3919C10.9966 94.196 10.6096 94.0188 10.1526 93.8603C9.70493 93.7017 9.15935 93.6225 8.51584 93.6225C7.90964 93.6225 7.37339 93.7064 6.90708 93.8743C6.45009 94.0328 6.06306 94.252 5.74597 94.5318C5.43821 94.8116 5.20505 95.1426 5.04651 95.525C4.88796 95.8981 4.80869 96.3037 4.80869 96.7421C4.80869 97.3016 4.94392 97.768 5.21438 98.141C5.49416 98.5047 5.85788 98.8171 6.30554 99.0783C6.76252 99.3394 7.27546 99.5679 7.84436 99.7638C8.42258 99.9503 9.01013 100.146 9.607 100.351C10.2132 100.556 10.8008 100.79 11.3696 101.051C11.9479 101.303 12.4608 101.624 12.9085 102.016C13.3654 102.408 13.7292 102.888 13.9996 103.457C14.2794 104.026 14.4193 104.725 14.4193 105.555C14.4193 106.432 14.2701 107.257 13.9716 108.031C13.6732 108.796 13.2349 109.463 12.6567 110.032C12.0878 110.601 11.3836 111.048 10.5443 111.375C9.71425 111.701 8.76765 111.864 7.70446 111.864C6.3988 111.864 5.21438 111.631 4.15119 111.165C3.08801 110.689 2.17871 110.051 1.42329 109.248L2.20669 107.961C2.2813 107.859 2.3699 107.775 2.47248 107.71C2.5844 107.635 2.70564 107.598 2.8362 107.598C2.95745 107.598 3.09267 107.649 3.24189 107.752C3.40044 107.845 3.57764 107.966 3.77348 108.115C3.96933 108.265 4.19316 108.428 4.44497 108.605C4.69678 108.782 4.98122 108.945 5.29831 109.095C5.62473 109.244 5.99311 109.37 6.40346 109.472C6.81382 109.566 7.27546 109.612 7.7884 109.612C8.43191 109.612 9.00546 109.524 9.50908 109.346C10.0127 109.169 10.437 108.922 10.7821 108.605C11.1365 108.279 11.407 107.892 11.5935 107.444C11.78 106.996 11.8733 106.497 11.8733 105.947C11.8733 105.341 11.7334 104.847 11.4536 104.464C11.1831 104.072 10.8241 103.746 10.3764 103.485C9.92876 103.224 9.41582 103.005 8.83759 102.827C8.25937 102.641 7.67182 102.454 7.07495 102.268C6.47807 102.072 5.89052 101.848 5.3123 101.596C4.73408 101.345 4.22114 101.018 3.77348 100.617C3.32583 100.216 2.96211 99.7171 2.68232 99.1202C2.41186 98.514 2.27663 97.768 2.27663 96.882C2.27663 96.1732 2.41186 95.4877 2.68232 94.8255C2.96211 94.1634 3.36313 93.5758 3.8854 93.0629C4.41699 92.55 5.06516 92.1396 5.8299 91.8318C6.60398 91.5241 7.48996 91.3702 8.48786 91.3702C9.607 91.3702 10.6236 91.5474 11.5375 91.9018C12.4608 92.2562 13.2722 92.7691 13.9716 93.4406L13.3142 94.7276ZM36.7733 101.624C36.7733 103.126 36.5354 104.506 36.0598 105.765C35.5842 107.015 34.9127 108.092 34.0453 108.997C33.178 109.901 32.1335 110.605 30.9118 111.109C29.6994 111.603 28.3564 111.85 26.8829 111.85C25.4093 111.85 24.0663 111.603 22.8539 111.109C21.6415 110.605 20.6017 109.901 19.7343 108.997C18.867 108.092 18.1955 107.015 17.7199 105.765C17.2443 104.506 17.0064 103.126 17.0064 101.624C17.0064 100.123 17.2443 98.7472 17.7199 97.4975C18.1955 96.2385 18.867 95.1566 19.7343 94.252C20.6017 93.338 21.6415 92.6292 22.8539 92.1256C24.0663 91.622 25.4093 91.3702 26.8829 91.3702C28.3564 91.3702 29.6994 91.622 30.9118 92.1256C32.1335 92.6292 33.178 93.338 34.0453 94.252C34.9127 95.1566 35.5842 96.2385 36.0598 97.4975C36.5354 98.7472 36.7733 100.123 36.7733 101.624ZM33.9894 101.624C33.9894 100.393 33.8215 99.2881 33.4858 98.3089C33.15 97.3296 32.6744 96.5043 32.0589 95.8328C31.4433 95.152 30.6973 94.6297 29.8206 94.266C28.9439 93.9023 27.9647 93.7204 26.8829 93.7204C25.8103 93.7204 24.8358 93.9023 23.9591 94.266C23.0824 94.6297 22.3317 95.152 21.7068 95.8328C21.0913 96.5043 20.6157 97.3296 20.2799 98.3089C19.9442 99.2881 19.7763 100.393 19.7763 101.624C19.7763 102.855 19.9442 103.961 20.2799 104.94C20.6157 105.91 21.0913 106.735 21.7068 107.416C22.3317 108.087 23.0824 108.605 23.9591 108.969C24.8358 109.323 25.8103 109.5 26.8829 109.5C27.9647 109.5 28.9439 109.323 29.8206 108.969C30.6973 108.605 31.4433 108.087 32.0589 107.416C32.6744 106.735 33.15 105.91 33.4858 104.94C33.8215 103.961 33.9894 102.855 33.9894 101.624ZM50.9103 94.7276C50.8263 94.8675 50.7331 94.9748 50.6305 95.0494C50.5372 95.1147 50.4206 95.1473 50.2807 95.1473C50.1222 95.1473 49.9357 95.068 49.7212 94.9095C49.5067 94.7509 49.2362 94.5784 48.9098 94.3919C48.5927 94.196 48.2057 94.0188 47.7487 93.8603C47.301 93.7017 46.7555 93.6225 46.112 93.6225C45.5058 93.6225 44.9695 93.7064 44.5032 93.8743C44.0462 94.0328 43.6592 94.252 43.3421 94.5318C43.0343 94.8116 42.8012 95.1426 42.6426 95.525C42.4841 95.8981 42.4048 96.3037 42.4048 96.7421C42.4048 97.3016 42.54 97.768 42.8105 98.141C43.0903 98.5047 43.454 98.8171 43.9017 99.0783C44.3586 99.3394 44.8716 99.5679 45.4405 99.7638C46.0187 99.9503 46.6062 100.146 47.2031 100.351C47.8093 100.556 48.3969 100.79 48.9658 101.051C49.544 101.303 50.0569 101.624 50.5046 102.016C50.9616 102.408 51.3253 102.888 51.5957 103.457C51.8755 104.026 52.0154 104.725 52.0154 105.555C52.0154 106.432 51.8662 107.257 51.5678 108.031C51.2693 108.796 50.831 109.463 50.2528 110.032C49.6839 110.601 48.9797 111.048 48.1404 111.375C47.3104 111.701 46.3638 111.864 45.3006 111.864C43.9949 111.864 42.8105 111.631 41.7473 111.165C40.6841 110.689 39.7748 110.051 39.0194 109.248L39.8028 107.961C39.8774 107.859 39.966 107.775 40.0686 107.71C40.1805 107.635 40.3017 107.598 40.4323 107.598C40.5536 107.598 40.6888 107.649 40.838 107.752C40.9965 107.845 41.1737 107.966 41.3696 108.115C41.5654 108.265 41.7893 108.428 42.0411 108.605C42.2929 108.782 42.5773 108.945 42.8944 109.095C43.2208 109.244 43.5892 109.37 43.9996 109.472C44.4099 109.566 44.8716 109.612 45.3845 109.612C46.028 109.612 46.6016 109.524 47.1052 109.346C47.6088 109.169 48.0331 108.922 48.3782 108.605C48.7326 108.279 49.0031 107.892 49.1896 107.444C49.3761 106.996 49.4694 106.497 49.4694 105.947C49.4694 105.341 49.3295 104.847 49.0497 104.464C48.7792 104.072 48.4202 103.746 47.9725 103.485C47.5249 103.224 47.0119 103.005 46.4337 102.827C45.8555 102.641 45.2679 102.454 44.6711 102.268C44.0742 102.072 43.4866 101.848 42.9084 101.596C42.3302 101.345 41.8173 101.018 41.3696 100.617C40.9219 100.216 40.5582 99.7171 40.2784 99.1202C40.008 98.514 39.8727 97.768 39.8727 96.882C39.8727 96.1732 40.008 95.4877 40.2784 94.8255C40.5582 94.1634 40.9592 93.5758 41.4815 93.0629C42.0131 92.55 42.6613 92.1396 43.426 91.8318C44.2001 91.5241 45.0861 91.3702 46.084 91.3702C47.2031 91.3702 48.2197 91.5474 49.1336 91.9018C50.0569 92.2562 50.8683 92.7691 51.5678 93.4406L50.9103 94.7276ZM58.5615 111.641H55.8476V91.594H58.5615V111.641ZM79.9867 91.594L71.817 111.641H69.3829L61.2131 91.594H63.3815C63.6239 91.594 63.8198 91.6546 63.969 91.7759C64.1182 91.8971 64.2301 92.051 64.3048 92.2375L69.9564 106.381C70.0777 106.698 70.1942 107.043 70.3061 107.416C70.4274 107.789 70.5346 108.181 70.6279 108.591C70.7212 108.181 70.8191 107.789 70.9217 107.416C71.0243 107.043 71.1362 106.698 71.2574 106.381L76.8951 92.2375C76.951 92.079 77.0583 91.9344 77.2168 91.8039C77.3847 91.664 77.5852 91.594 77.8184 91.594H79.9867ZM85.3378 111.641H82.6239V91.594H85.3378V111.641ZM108.987 101.624C108.987 103.126 108.749 104.506 108.274 105.765C107.798 107.015 107.127 108.092 106.259 108.997C105.392 109.901 104.348 110.605 103.126 111.109C101.913 111.603 100.57 111.85 99.0969 111.85C97.6234 111.85 96.2804 111.603 95.068 111.109C93.8556 110.605 92.8157 109.901 91.9484 108.997C91.0811 108.092 90.4096 107.015 89.9339 105.765C89.4583 104.506 89.2205 103.126 89.2205 101.624C89.2205 100.123 89.4583 98.7472 89.9339 97.4975C90.4096 96.2385 91.0811 95.1566 91.9484 94.252C92.8157 93.338 93.8556 92.6292 95.068 92.1256C96.2804 91.622 97.6234 91.3702 99.0969 91.3702C100.57 91.3702 101.913 91.622 103.126 92.1256C104.348 92.6292 105.392 93.338 106.259 94.252C107.127 95.1566 107.798 96.2385 108.274 97.4975C108.749 98.7472 108.987 100.123 108.987 101.624ZM106.203 101.624C106.203 100.393 106.036 99.2881 105.7 98.3089C105.364 97.3296 104.888 96.5043 104.273 95.8328C103.657 95.152 102.911 94.6297 102.035 94.266C101.158 93.9023 100.179 93.7204 99.0969 93.7204C98.0244 93.7204 97.0498 93.9023 96.1731 94.266C95.2965 94.6297 94.5457 95.152 93.9209 95.8328C93.3053 96.5043 92.8297 97.3296 92.494 98.3089C92.1582 99.2881 91.9904 100.393 91.9904 101.624C91.9904 102.855 92.1582 103.961 92.494 104.94C92.8297 105.91 93.3053 106.735 93.9209 107.416C94.5457 108.087 95.2965 108.605 96.1731 108.969C97.0498 109.323 98.0244 109.5 99.0969 109.5C100.179 109.5 101.158 109.323 102.035 108.969C102.911 108.605 103.657 108.087 104.273 107.416C104.888 106.735 105.364 105.91 105.7 104.94C106.036 103.961 106.203 102.855 106.203 101.624Z" fill="#3568D4"/>
<defs>
<linearGradient id="paint0_linear_40_1468" x1="22.9605" y1="23.256" x2="95.6922" y2="65.2477" gradientUnits="userSpaceOnUse">
<stop offset="0.2046" stop-color="#20B4E5"/>
<stop offset="0.6596" stop-color="#3568D4"/>
</linearGradient>
</defs>
</svg>
