<svg width="141" height="24" viewBox="0 0 141 24" fill="none" xmlns="http://www.w3.org/2000/svg">
<path d="M41.1608 20.6804C40.5161 21.0349 39.698 21.2109 38.7087 21.2109C37.95 21.2109 37.2459 21.0721 36.6037 20.7969C35.9591 20.5192 35.4013 20.1399 34.9277 19.6564C34.4542 19.1729 34.0847 18.6126 33.817 17.9754C33.5517 17.3382 33.4178 16.6514 33.4178 15.9176C33.4178 15.1837 33.5517 14.4944 33.817 13.8498C34.0822 13.2052 34.4542 12.6399 34.9277 12.149C35.4013 11.658 35.9641 11.2737 36.6137 10.9911C37.2632 10.7085 37.9699 10.5671 38.7285 10.5671C39.6955 10.5671 40.4963 10.7283 41.1335 11.0506C41.7707 11.3729 42.3285 11.7969 42.8046 12.325L41.3566 13.8895C40.9946 13.5151 40.6128 13.2101 40.2062 12.9721C39.7996 12.7341 39.3013 12.6151 38.7087 12.6151C38.2847 12.6151 37.8905 12.7018 37.531 12.8754C37.169 13.049 36.8616 13.2845 36.6037 13.5795C36.3459 13.8771 36.1426 14.2192 35.9963 14.6134C35.8475 15.0052 35.7732 15.4291 35.7732 15.8779C35.7732 16.3415 35.8475 16.7729 35.9963 17.1721C36.1451 17.5713 36.3533 17.9184 36.6236 18.2159C36.8938 18.5134 37.2161 18.7465 37.5905 18.92C37.9649 19.0936 38.3765 19.1804 38.8277 19.1804C39.3806 19.1804 39.8665 19.0614 40.2856 18.8233C40.7046 18.5853 41.0988 18.2804 41.4732 17.906L42.8839 19.2969C42.3781 19.8647 41.8054 20.3258 41.1608 20.6804Z" fill="#14142B"/>
<path d="M44.1757 20.9777V6.87769H46.531V20.9777H44.1757Z" fill="#14142B"/>
<path d="M58.4988 17.9457C58.2211 18.5903 57.8418 19.1531 57.3583 19.6366C56.8748 20.1201 56.2996 20.5019 55.6302 20.787C54.9608 21.0697 54.2318 21.211 53.4484 21.211C52.6748 21.211 51.9583 21.0721 51.2938 20.7969C50.6294 20.5192 50.0566 20.1399 49.5756 19.6564C49.0922 19.173 48.7153 18.6126 48.4451 17.9754C48.1748 17.3383 48.0385 16.6515 48.0385 15.9176C48.0385 15.1837 48.1773 14.492 48.455 13.8399C48.7327 13.1903 49.112 12.6226 49.5955 12.1391C50.0789 11.6556 50.6517 11.2738 51.3137 10.9887C51.9756 10.706 52.7021 10.5647 53.4856 10.5647C54.2715 10.5647 54.9955 10.7035 55.6575 10.9788C56.3194 11.2564 56.8947 11.6358 57.3756 12.1192C57.8566 12.6027 58.236 13.1655 58.5062 13.8102C58.7765 14.4548 58.9128 15.144 58.9128 15.8779C58.9128 16.6143 58.774 17.3035 58.4988 17.9457ZM56.3269 14.6432C56.1732 14.244 55.9599 13.892 55.6847 13.5895C55.4095 13.287 55.0823 13.049 54.7054 12.8754C54.3285 12.7019 53.9095 12.6151 53.4484 12.6151C52.9872 12.6151 52.5682 12.7019 52.1913 12.8754C51.8145 13.049 51.4897 13.2845 51.2219 13.5796C50.9542 13.8771 50.7484 14.2192 50.6071 14.6135C50.4657 15.0052 50.3963 15.4292 50.3963 15.8779C50.3963 16.3292 50.4732 16.7556 50.6269 17.1622C50.7806 17.5688 50.9938 17.9184 51.269 18.2159C51.5442 18.5135 51.8715 18.7465 52.2484 18.9201C52.6252 19.0936 53.0393 19.1804 53.4856 19.1804C53.9591 19.1804 54.3831 19.0936 54.7624 18.9201C55.1418 18.7465 55.4641 18.511 55.7318 18.2159C55.9996 17.9209 56.2054 17.5763 56.3467 17.1821C56.488 16.7903 56.5575 16.3664 56.5575 15.9176C56.5575 15.4664 56.4806 15.0424 56.3269 14.6432Z" fill="#14142B"/>
<path d="M67.0079 10.7803H69.3632V20.9778H67.0079V19.3787C66.6731 19.872 66.2566 20.2985 65.7558 20.6555C65.255 21.0125 64.6128 21.1911 63.8293 21.1911C62.674 21.1911 61.7814 20.8365 61.1517 20.1274C60.5219 19.4183 60.207 18.4663 60.207 17.2687V10.7778H62.5624V16.5597C62.5624 17.3555 62.7508 17.9704 63.1277 18.3993C63.5046 18.8307 64.0376 19.044 64.7269 19.044C65.4037 19.044 65.9517 18.8233 66.3731 18.3795C66.7946 17.9357 67.0054 17.3159 67.0054 16.52V10.7803H67.0079Z" fill="#14142B"/>
<path d="M79.0029 20.9778V19.277C78.631 19.8051 78.1649 20.2563 77.6071 20.6282C77.0467 21.0026 76.3575 21.1885 75.5343 21.1885C74.9294 21.1885 74.3467 21.072 73.7815 20.8414C73.2162 20.6084 72.7153 20.2662 72.279 19.8076C71.8426 19.3514 71.4881 18.7935 71.2203 18.1365C70.95 17.4795 70.8162 16.7257 70.8162 15.8753C70.8162 15.0249 70.9476 14.2712 71.2104 13.6142C71.4732 12.9571 71.8228 12.3993 72.2616 11.9431C72.698 11.4869 73.2013 11.1423 73.774 10.9092C74.3443 10.6786 74.9343 10.5621 75.5368 10.5621C76.3724 10.5621 77.0666 10.7431 77.617 11.1026C78.1699 11.4621 78.631 11.8811 79.0054 12.3571V6.87036H81.3633V20.9704H79.0029V20.9778ZM78.7996 14.5266C78.6385 14.1274 78.4228 13.7828 78.155 13.4927C77.8848 13.2026 77.5699 12.9819 77.2129 12.8257C76.8534 12.672 76.4815 12.5927 76.0972 12.5927C75.698 12.5927 75.3236 12.6671 74.9715 12.8158C74.6195 12.9646 74.3071 13.1803 74.0368 13.4629C73.7666 13.7456 73.5558 14.0902 73.4021 14.4968C73.2484 14.9034 73.1715 15.3621 73.1715 15.8778C73.1715 16.3811 73.2484 16.8348 73.4021 17.239C73.5558 17.6456 73.7666 17.9902 74.0368 18.2728C74.3071 18.5555 74.617 18.7761 74.9715 18.9299C75.3236 19.0836 75.7005 19.1604 76.0972 19.1604C76.4815 19.1604 76.8534 19.0836 77.2129 18.9299C77.5724 18.7761 77.8872 18.553 78.155 18.2629C78.4253 17.9728 78.6385 17.6282 78.7996 17.229C78.9608 16.8299 79.0401 16.3786 79.0401 15.8778C79.0401 15.377 78.9608 14.9257 78.7996 14.5266Z" fill="#14142B"/>
<path d="M25.3946 8.24878V14.1075H4.57809V8.24878C1.86817 9.61985 0.00866699 12.4314 0.00866699 15.6769C0.00866699 19.7008 2.86486 23.0579 6.66321 23.8314C6.66321 21.4736 6.66321 19.1256 6.66321 16.7604C5.95412 16.3959 5.27726 16.0513 4.58057 15.6942H25.3971C25.3971 15.6942 25.3971 15.6942 25.3971 15.6967C24.7401 16.0364 24.0483 16.3934 23.312 16.7727C23.312 19.1182 23.312 21.4612 23.312 23.8339C27.1103 23.0628 29.969 19.7058 29.969 15.6794C29.9665 12.4314 28.107 9.61985 25.3946 8.24878Z" fill="#14142B"/>
<path d="M14.9863 0C10.888 0 7.41938 2.6752 6.22186 6.37438H8.72104V10.443H12.9384V6.36446H14.9863H17.0343V10.443H21.2516V6.37438H23.7508C22.5533 2.6752 19.0847 0 14.9863 0Z" fill="#14142B"/>
<path d="M16.5533 19.3811H13.4194V24.0001H16.5533V19.3811Z" fill="#14142B"/>
<path d="M91.4938 20.6504C90.8566 21.0248 90.088 21.2108 89.1855 21.2108C88.4764 21.2108 87.8169 21.0719 87.2045 20.7967C86.5921 20.5215 86.0616 20.1496 85.6128 19.686C85.164 19.2223 84.812 18.6819 84.5591 18.0645C84.3062 17.4471 84.1797 16.7901 84.1797 16.0934V16.0538C84.1797 15.3595 84.3062 14.7025 84.5591 14.0827C84.812 13.4653 85.1616 12.9174 85.6128 12.4414C86.0616 11.9653 86.5921 11.5885 87.2045 11.3108C87.8169 11.0331 88.4764 10.8967 89.1855 10.8967C89.6492 10.8967 90.0707 10.9463 90.45 11.0455C90.8293 11.1447 91.1814 11.2785 91.5037 11.4496C91.826 11.6207 92.1186 11.8166 92.3814 12.0347C92.6442 12.2554 92.8921 12.486 93.1252 12.7314L92.4483 13.4257C92.0244 12.9868 91.5533 12.6075 91.0376 12.2852C90.5219 11.9628 89.8971 11.8017 89.1632 11.8017C88.5954 11.8017 88.0723 11.9108 87.5888 12.129C87.1054 12.3471 86.6864 12.6447 86.3343 13.024C85.9822 13.4033 85.6996 13.8471 85.4938 14.3604C85.288 14.8736 85.1839 15.424 85.1839 16.0141V16.0538C85.1839 16.6438 85.2905 17.1967 85.5037 17.7174C85.7169 18.2356 86.007 18.6893 86.374 19.0736C86.7409 19.4579 87.1698 19.7604 87.6583 19.9761C88.1467 20.1942 88.6748 20.3033 89.2426 20.3033C89.9368 20.3033 90.5591 20.1447 91.107 19.8298C91.6549 19.5149 92.1335 19.1257 92.545 18.662L93.2021 19.2422C92.7012 19.8075 92.1335 20.2761 91.4938 20.6504Z" fill="#14142B"/>
<path d="M101.684 20.9777V19.3364C101.515 19.5669 101.314 19.7975 101.076 20.0231C100.838 20.2488 100.563 20.4471 100.256 20.6231C99.9484 20.7992 99.5963 20.938 99.2021 21.0471C98.8103 21.1562 98.3814 21.2107 97.9178 21.2107C97.4541 21.2107 96.9979 21.1463 96.5467 21.0174C96.0955 20.8884 95.6889 20.695 95.3294 20.4372C94.9674 20.1793 94.6748 19.857 94.4517 19.4703C94.226 19.0835 94.1145 18.6322 94.1145 18.119V18.0818C94.1145 17.5661 94.2211 17.1099 94.4343 16.7107C94.6475 16.3116 94.9401 15.9769 95.312 15.7066C95.6864 15.4364 96.1351 15.2306 96.6632 15.0893C97.1913 14.9479 97.7765 14.876 98.4211 14.876C99.1153 14.876 99.7153 14.9157 100.219 14.9926C100.722 15.0694 101.21 15.1736 101.686 15.3025V14.881C101.686 13.8818 101.399 13.1331 100.826 12.6347C100.253 12.1364 99.4575 11.886 98.4409 11.886C97.836 11.886 97.2831 11.9603 96.7798 12.1091C96.2765 12.2579 95.8004 12.4463 95.3492 12.6793L95.0021 11.8488C95.5426 11.586 96.0905 11.3752 96.6434 11.2165C97.1963 11.0579 97.8161 10.9785 98.4979 10.9785C99.7723 10.9785 100.776 11.3008 101.51 11.9455C102.244 12.5901 102.611 13.5545 102.611 14.8438V20.9851H101.684V20.9777ZM101.704 16.1678C101.292 16.0661 100.809 15.9669 100.256 15.8703C99.7029 15.7736 99.0707 15.7264 98.3641 15.7264C97.3203 15.7264 96.5194 15.9347 95.9591 16.3512C95.3988 16.7678 95.1186 17.3231 95.1186 18.0149V18.0521C95.1186 18.4116 95.1955 18.7289 95.3492 19.0041C95.5029 19.2793 95.7136 19.5149 95.9765 19.7058C96.2393 19.8992 96.5467 20.0455 96.8938 20.1471C97.2409 20.2488 97.6029 20.3008 97.9748 20.3008C98.4781 20.3008 98.9541 20.2264 99.4054 20.0802C99.8566 19.9339 100.251 19.7281 100.593 19.4653C100.935 19.2025 101.205 18.8851 101.404 18.5132C101.602 18.1413 101.704 17.7322 101.704 17.281V16.1678Z" fill="#14142B"/>
<path d="M111.371 19.485C111.197 19.8396 110.954 20.1396 110.647 20.39C110.337 20.6404 109.977 20.8338 109.566 20.9677C109.154 21.1016 108.71 21.171 108.232 21.171C107.51 21.171 106.789 21.0371 106.067 20.7669C105.346 20.4966 104.721 20.1495 104.193 19.7231L104.753 18.9693C105.294 19.3809 105.862 19.7007 106.454 19.9264C107.047 20.152 107.659 20.2636 108.289 20.2636C108.958 20.2636 109.521 20.0974 109.98 19.7627C110.436 19.428 110.667 18.9718 110.667 18.3941V18.3545C110.667 18.0718 110.595 17.8288 110.453 17.6231C110.312 17.4173 110.119 17.2388 109.873 17.0826C109.628 16.9288 109.352 16.7999 109.043 16.6983C108.733 16.5966 108.405 16.4925 108.058 16.3908C107.659 16.2743 107.257 16.1528 106.851 16.0239C106.444 15.895 106.082 15.7313 105.76 15.533C105.438 15.3346 105.177 15.0867 104.976 14.7917C104.776 14.4966 104.676 14.1297 104.676 13.6933V13.6536C104.676 13.2545 104.756 12.8925 104.917 12.5652C105.078 12.2379 105.299 11.9528 105.584 11.7074C105.867 11.4619 106.209 11.2735 106.608 11.1396C107.007 11.0057 107.446 10.9363 107.922 10.9363C108.514 10.9363 109.122 11.0355 109.747 11.2313C110.371 11.4297 110.927 11.6974 111.418 12.0371L110.914 12.828C110.463 12.533 109.977 12.295 109.457 12.114C108.936 11.933 108.41 11.8437 107.882 11.8437C107.2 11.8437 106.655 12.0074 106.251 12.3346C105.844 12.6619 105.643 13.071 105.643 13.5594V13.5991C105.643 13.8693 105.72 14.1024 105.876 14.3032C106.03 14.5016 106.233 14.6726 106.484 14.814C106.734 14.9553 107.027 15.0817 107.362 15.1908C107.696 15.2999 108.038 15.4065 108.386 15.5082C108.785 15.6247 109.176 15.7487 109.563 15.885C109.95 16.0189 110.297 16.1925 110.607 16.4057C110.917 16.6189 111.165 16.8718 111.351 17.1669C111.537 17.4619 111.631 17.8288 111.631 18.2652V18.3049C111.631 18.7363 111.544 19.1305 111.371 19.485Z" fill="#14142B"/>
<path d="M117.609 21.0645C117.358 21.1215 117.078 21.1513 116.768 21.1513C116.381 21.1513 116.022 21.0992 115.687 20.9976C115.352 20.8934 115.06 20.7298 114.809 20.5042C114.559 20.2786 114.363 19.9959 114.219 19.6538C114.078 19.3116 114.006 18.91 114.006 18.4463V11.9951H112.578V11.1248H114.006V7.97607H114.953V11.1248H118.412V11.9951H114.953V18.3348C114.953 19.0414 115.137 19.5372 115.504 19.8199C115.871 20.1025 116.344 20.2438 116.924 20.2438C117.17 20.2438 117.4 20.219 117.619 20.1719C117.837 20.1224 118.09 20.0381 118.372 19.9166V20.8042C118.114 20.9207 117.862 21.0075 117.609 21.0645Z" fill="#14142B"/>
<path d="M120.381 20.9777V6.87769H121.328V20.9777H120.381Z" fill="#14142B"/>
<path d="M124.826 18.072C125.059 18.5455 125.349 18.9497 125.696 19.2819C126.046 19.6141 126.443 19.8695 126.886 20.0406C127.33 20.2116 127.799 20.3009 128.29 20.3009C129.063 20.3009 129.72 20.1521 130.256 19.8571C130.791 19.5621 131.267 19.1951 131.679 18.7563L132.336 19.3364C131.833 19.8769 131.262 20.3257 130.623 20.6778C129.983 21.0323 129.192 21.2083 128.25 21.2083C127.605 21.2083 126.988 21.0869 126.4 20.8414C125.813 20.5959 125.297 20.2488 124.851 19.7976C124.405 19.3464 124.055 18.8059 123.795 18.1761C123.537 17.5464 123.408 16.8422 123.408 16.0711V16.0315C123.408 15.3224 123.527 14.6579 123.765 14.0331C124.003 13.4083 124.333 12.8654 124.749 12.4017C125.168 11.9381 125.659 11.5711 126.227 11.3009C126.792 11.0307 127.412 10.8943 128.081 10.8943C128.776 10.8943 129.4 11.0257 129.956 11.291C130.509 11.5538 130.982 11.9183 131.376 12.3819C131.768 12.8455 132.071 13.3885 132.284 14.0133C132.497 14.6381 132.604 15.3174 132.604 16.0513V16.091C132.604 16.1554 132.604 16.2125 132.604 16.2645C132.604 16.3042 132.596 16.3612 132.584 16.4381H124.412C124.457 17.0554 124.593 17.5984 124.826 18.072ZM131.605 15.5902C131.565 15.0869 131.466 14.6083 131.305 14.1521C131.143 13.6959 130.918 13.2893 130.628 12.9348C130.338 12.5802 129.978 12.2976 129.552 12.0844C129.125 11.8711 128.629 11.7645 128.062 11.7645C127.571 11.7645 127.112 11.8612 126.686 12.0546C126.259 12.248 125.887 12.5158 125.572 12.8554C125.255 13.1976 124.995 13.6017 124.789 14.0728C124.583 14.5439 124.459 15.0472 124.422 15.5902H131.605Z" fill="#14142B"/>
<path d="M140.731 19.485C140.557 19.8396 140.314 20.1396 140.007 20.39C139.697 20.6404 139.338 20.8338 138.926 20.9677C138.514 21.1016 138.071 21.171 137.592 21.171C136.871 21.171 136.149 21.0371 135.428 20.7669C134.706 20.4966 134.081 20.1495 133.553 19.7231L134.114 18.9693C134.654 19.3809 135.222 19.7007 135.814 19.9264C136.407 20.152 137.019 20.2636 137.649 20.2636C138.319 20.2636 138.881 20.0974 139.34 19.7627C139.796 19.428 140.027 18.9718 140.027 18.3941V18.3545C140.027 18.0718 139.955 17.8288 139.814 17.6231C139.672 17.4173 139.479 17.2388 139.233 17.0826C138.988 16.9288 138.713 16.7999 138.403 16.6983C138.093 16.5966 137.766 16.4925 137.419 16.3908C137.019 16.2743 136.618 16.1528 136.211 16.0239C135.805 15.895 135.443 15.7313 135.12 15.533C134.798 15.3346 134.538 15.0867 134.337 14.7917C134.136 14.4966 134.037 14.1297 134.037 13.6933V13.6536C134.037 13.2545 134.116 12.8925 134.277 12.5652C134.438 12.2379 134.659 11.9528 134.944 11.7074C135.227 11.4619 135.569 11.2735 135.968 11.1396C136.367 11.0057 136.806 10.9363 137.282 10.9363C137.875 10.9363 138.482 11.0355 139.107 11.2313C139.732 11.4297 140.287 11.6974 140.778 12.0371L140.275 12.828C139.824 12.533 139.338 12.295 138.817 12.114C138.296 11.933 137.771 11.8437 137.243 11.8437C136.561 11.8437 136.015 12.0074 135.611 12.3346C135.205 12.6619 135.004 13.071 135.004 13.5594V13.5991C135.004 13.8693 135.081 14.1024 135.237 14.3032C135.39 14.5016 135.594 14.6726 135.844 14.814C136.095 14.9553 136.387 15.0817 136.722 15.1908C137.057 15.2999 137.399 15.4065 137.746 15.5082C138.145 15.6247 138.537 15.7487 138.924 15.885C139.31 16.0189 139.657 16.1925 139.967 16.4057C140.277 16.6189 140.525 16.8718 140.711 17.1669C140.897 17.4619 140.991 17.8288 140.991 18.2652V18.3049C140.991 18.7363 140.905 19.1305 140.731 19.485Z" fill="#14142B"/>
</svg>
