<svg width="21" height="20" viewBox="0 0 21 20" fill="none" xmlns="http://www.w3.org/2000/svg">
<path d="M10.5 0.399902C5.19802 0.399902 0.900024 4.6979 0.900024 9.9999C0.900024 15.3019 5.19802 19.5999 10.5 19.5999C15.802 19.5999 20.1 15.3019 20.1 9.9999C20.1 4.6979 15.802 0.399902 10.5 0.399902ZM8.15002 13.9789H6.20602V7.7229H8.15002V13.9789ZM7.16602 6.9549C6.55202 6.9549 6.15502 6.5199 6.15502 5.9819C6.15502 5.4329 6.56402 5.0109 7.19102 5.0109C7.81802 5.0109 8.20202 5.4329 8.21402 5.9819C8.21402 6.5199 7.81802 6.9549 7.16602 6.9549ZM15.25 13.9789H13.306V10.5119C13.306 9.7049 13.024 9.1569 12.321 9.1569C11.784 9.1569 11.465 9.5279 11.324 9.8849C11.272 10.0119 11.259 10.1919 11.259 10.3709V13.9779H9.31402V9.7179C9.31402 8.9369 9.28902 8.2839 9.26302 7.7219H10.952L11.041 8.5909H11.08C11.336 8.1829 11.963 7.5809 13.012 7.5809C14.291 7.5809 15.25 8.4379 15.25 10.2799V13.9789Z" fill="#005C84"/>
</svg>
