<svg width="74" height="85" viewBox="0 0 74 85" fill="none" xmlns="http://www.w3.org/2000/svg">
<path d="M72.3321 20.4694L38.0121 0.659371C37.9521 0.629371 37.8921 0.589375 37.8321 0.569375C37.2321 0.289375 36.5321 0.289375 35.9221 0.569375C35.8621 0.599375 35.8021 0.629371 35.7421 0.659371L1.4221 20.4694C0.722104 20.8794 0.282104 21.6294 0.282104 22.4394V62.0694C0.282104 62.2594 0.302104 62.4394 0.352104 62.6194C0.492104 63.1794 0.842102 63.6694 1.3421 63.9894C1.3721 64.0094 1.4021 64.0294 1.4221 64.0394L35.7421 83.8494C36.4421 84.2594 37.3121 84.2594 38.0221 83.8494L72.3421 64.0394C72.3721 64.0194 72.4021 64.0094 72.4221 63.9894C72.9221 63.6694 73.2721 63.1794 73.4121 62.6194C73.4521 62.4394 73.4821 62.2594 73.4821 62.0694V22.4394C73.4721 21.6294 73.0421 20.8794 72.3321 20.4694ZM69.1521 22.0494L54.9521 30.2094L40.7821 5.67938L69.1521 22.0494ZM36.8321 4.76937C36.8521 4.72937 36.9121 4.72937 36.9321 4.76937L47.9721 23.8894C44.7521 21.9694 40.9921 20.8694 36.9721 20.8694C32.8421 20.8694 28.9921 22.0294 25.7121 24.0494L36.8321 4.76937ZM33.0521 5.52937L18.7821 30.2494L4.4921 22.0494L33.0521 5.52937ZM3.1621 24.4994L17.2921 32.8294L17.2221 32.9594L3.1621 57.6794V24.4994ZM15.4521 41.7994C15.4421 41.9894 15.4421 42.1894 15.4421 42.3794C15.4421 50.5094 19.9521 57.5794 26.6021 61.2394H4.2221L15.4521 41.7994ZM35.5321 80.6594L6.6521 63.9894H35.5221V80.6594H35.5321ZM36.8721 61.0494C36.4221 61.0494 35.9721 61.0294 35.5221 60.9994C25.8521 60.3094 18.2221 52.2394 18.2221 42.3994C18.2221 39.5494 18.8621 36.8494 20.0021 34.4294C20.4321 33.5194 20.9421 32.6394 21.5121 31.8194C24.8721 26.9394 30.5021 23.7494 36.8721 23.7494C43.2321 23.7494 48.8421 26.9294 52.2121 31.7894C52.8021 32.6394 53.3221 33.5294 53.7621 34.4694C54.8921 36.8694 55.5221 39.5594 55.5221 42.3894C55.5221 52.2094 47.9421 60.2494 38.3121 60.9794C37.8421 61.0294 37.3621 61.0494 36.8721 61.0494ZM38.3121 80.6594V63.9894H67.1821L38.3121 80.6594ZM47.3321 61.2494C53.9821 57.5894 58.4821 50.5094 58.4821 42.3894C58.4821 42.2894 58.4821 42.1994 58.4821 42.0994L69.5421 61.2494H47.3321ZM70.6821 57.8294L56.5421 32.9594L56.4921 32.8694L70.6821 24.4994V57.8294Z" fill="url(#paint0_linear_40_1469)"/>
<defs>
<linearGradient id="paint0_linear_40_1469" x1="3.9605" y1="23.256" x2="76.6922" y2="65.2477" gradientUnits="userSpaceOnUse">
<stop offset="0.2046" stop-color="#20B4E5"/>
<stop offset="0.6596" stop-color="#3568D4"/>
</linearGradient>
</defs>
</svg>
