<svg width="20" height="20" viewBox="0 0 20 20" fill="none" xmlns="http://www.w3.org/2000/svg">
<path d="M8.83331 13.4837C8.83331 13.7931 8.95623 14.0899 9.17502 14.3086C9.39382 14.5274 9.69056 14.6504 9.99998 14.6504C10.3094 14.6504 10.6061 14.5274 10.8249 14.3086C11.0437 14.0899 11.1666 13.7931 11.1666 13.4837V5.13269L14.9501 8.91619L16.5998 7.26652L9.99998 0.666687L3.40015 7.26652L5.04981 8.91619L8.83331 5.13502V13.4849V13.4837Z" fill="white"/>
<path d="M0.666626 12.3334H2.99996V17H17V12.3334H19.3333V17C19.3333 17.6189 19.0875 18.2124 18.6499 18.65C18.2123 19.0875 17.6188 19.3334 17 19.3334H2.99996C2.38112 19.3334 1.78763 19.0875 1.35004 18.65C0.912458 18.2124 0.666626 17.6189 0.666626 17V12.3334Z" fill="white"/>
</svg>
